<svg width="140" height="100" viewBox="0 0 140 100" fill="none" xmlns="http://www.w3.org/2000/svg">
  <defs>
    <linearGradient id="bg5" x1="0%" y1="0%" x2="100%" y2="100%">
      <stop offset="0%" style="stop-color:#f8fafc;stop-opacity:1" />
      <stop offset="100%" style="stop-color:#e2e8f0;stop-opacity:1" />
    </linearGradient>
    <linearGradient id="app1" x1="0%" y1="0%" x2="100%" y2="100%">
      <stop offset="0%" style="stop-color:#3b82f6;stop-opacity:1" />
      <stop offset="100%" style="stop-color:#1e40af;stop-opacity:1" />
    </linearGradient>
    <linearGradient id="app2" x1="0%" y1="0%" x2="100%" y2="100%">
      <stop offset="0%" style="stop-color:#10b981;stop-opacity:1" />
      <stop offset="100%" style="stop-color:#059669;stop-opacity:1" />
    </linearGradient>
    <linearGradient id="app3" x1="0%" y1="0%" x2="100%" y2="100%">
      <stop offset="0%" style="stop-color:#f59e0b;stop-opacity:1" />
      <stop offset="100%" style="stop-color:#d97706;stop-opacity:1" />
    </linearGradient>
    <linearGradient id="panel1" x1="0%" y1="0%" x2="100%" y2="100%">
      <stop offset="0%" style="stop-color:#f1f5f9;stop-opacity:1" />
      <stop offset="100%" style="stop-color:#e2e8f0;stop-opacity:1" />
    </linearGradient>
    <filter id="shadow5" x="-20%" y="-20%" width="140%" height="140%">
      <feDropShadow dx="0" dy="4" stdDeviation="8" flood-color="#000000" flood-opacity="0.15"/>
    </filter>
  </defs>

  <rect width="140" height="100" rx="12" fill="url(#bg5)"/>

  <!-- 应用图标组 -->
  <g transform="translate(15, 15)">
    <!-- 应用1 - 开发阶段 -->
    <g transform="translate(0, 0)">
      <rect x="0" y="0" width="30" height="30" rx="6" fill="url(#app1)" filter="url(#shadow5)"/>
      <rect x="4" y="4" width="22" height="3" rx="1.5" fill="#ffffff" opacity="0.9"/>
      <rect x="4" y="9" width="16" height="2" rx="1" fill="#ffffff" opacity="0.7"/>
      <rect x="4" y="12" width="18" height="2" rx="1" fill="#ffffff" opacity="0.7"/>
      <rect x="4" y="15" width="12" height="2" rx="1" fill="#ffffff" opacity="0.7"/>
      <rect x="4" y="18" width="15" height="2" rx="1" fill="#ffffff" opacity="0.7"/>
      <rect x="4" y="21" width="10" height="2" rx="1" fill="#ffffff" opacity="0.7"/>
    </g>

    <!-- 应用2 - 测试阶段 -->
    <g transform="translate(35, 0)">
      <rect x="0" y="0" width="30" height="30" rx="6" fill="url(#app2)" filter="url(#shadow5)"/>
      <rect x="4" y="4" width="22" height="3" rx="1.5" fill="#ffffff" opacity="0.9"/>
      <rect x="4" y="9" width="16" height="2" rx="1" fill="#ffffff" opacity="0.7"/>
      <rect x="4" y="12" width="18" height="2" rx="1" fill="#ffffff" opacity="0.7"/>
      <rect x="4" y="15" width="12" height="2" rx="1" fill="#ffffff" opacity="0.7"/>
      <rect x="4" y="18" width="15" height="2" rx="1" fill="#ffffff" opacity="0.7"/>
      <rect x="4" y="21" width="10" height="2" rx="1" fill="#ffffff" opacity="0.7"/>
    </g>

    <!-- 应用3 - 生产阶段 -->
    <g transform="translate(70, 0)">
      <rect x="0" y="0" width="30" height="30" rx="6" fill="url(#app3)" filter="url(#shadow5)"/>
      <rect x="4" y="4" width="22" height="3" rx="1.5" fill="#ffffff" opacity="0.9"/>
      <rect x="4" y="9" width="16" height="2" rx="1" fill="#ffffff" opacity="0.7"/>
      <rect x="4" y="12" width="18" height="2" rx="1" fill="#ffffff" opacity="0.7"/>
      <rect x="4" y="15" width="12" height="2" rx="1" fill="#ffffff" opacity="0.7"/>
      <rect x="4" y="18" width="15" height="2" rx="1" fill="#ffffff" opacity="0.7"/>
      <rect x="4" y="21" width="10" height="2" rx="1" fill="#ffffff" opacity="0.7"/>
    </g>
  </g>

  <!-- 管理面板 -->
  <g transform="translate(15, 50)">
    <rect x="0" y="0" width="110" height="25" rx="8" fill="url(#panel1)" filter="url(#shadow5)"/>
    <rect x="8" y="6" width="94" height="4" rx="2" fill="#64748b" opacity="0.8"/>
    <rect x="8" y="12" width="65" height="3" rx="1.5" fill="#64748b" opacity="0.6"/>
    <rect x="8" y="17" width="75" height="3" rx="1.5" fill="#64748b" opacity="0.6"/>
  </g>

  <!-- 状态指示器 -->
  <g transform="translate(85, 60)">
    <circle cx="0" cy="0" r="4" fill="#10b981"/>
    <circle cx="15" cy="0" r="4" fill="#f59e0b"/>
    <circle cx="30" cy="0" r="4" fill="#ef4444"/>
  </g>

  <!-- 连接线 -->
  <g transform="translate(15, 50)">
    <path d="M 15 15 L 15 50" stroke="#6b7280" stroke-width="1.5" stroke-dasharray="3,3" opacity="0.6"/>
    <path d="M 50 15 L 50 50" stroke="#6b7280" stroke-width="1.5" stroke-dasharray="3,3" opacity="0.6"/>
    <path d="M 85 15 L 85 50" stroke="#6b7280" stroke-width="1.5" stroke-dasharray="3,3" opacity="0.6"/>
  </g>

  <!-- 生命周期流程 -->
  <g transform="translate(15, 80)">
    <circle cx="0" cy="0" r="4" fill="#3b82f6"/>
    <circle cx="20" cy="0" r="4" fill="#10b981"/>
    <circle cx="40" cy="0" r="4" fill="#f59e0b"/>
    <circle cx="60" cy="0" r="4" fill="#8b5cf6"/>
    <circle cx="80" cy="0" r="4" fill="#ef4444"/>
    <circle cx="100" cy="0" r="4" fill="#06b6d4"/>

    <!-- 连接线 -->
    <path d="M 4 0 L 16 0" stroke="#6b7280" stroke-width="2" fill="none" stroke-linecap="round"/>
    <path d="M 24 0 L 36 0" stroke="#6b7280" stroke-width="2" fill="none" stroke-linecap="round"/>
    <path d="M 44 0 L 56 0" stroke="#6b7280" stroke-width="2" fill="none" stroke-linecap="round"/>
    <path d="M 64 0 L 76 0" stroke="#6b7280" stroke-width="2" fill="none" stroke-linecap="round"/>
    <path d="M 84 0 L 96 0" stroke="#6b7280" stroke-width="2" fill="none" stroke-linecap="round"/>
  </g>

  <!-- 管理标识 -->
  <g transform="translate(100, 80)">
    <rect x="0" y="0" width="25" height="12" rx="3" fill="#8b5cf6" opacity="0.8"/>
    <text x="12.5" y="8" text-anchor="middle" font-family="Arial, sans-serif" font-size="7" fill="#ffffff" font-weight="bold">MGT</text>
  </g>
</svg>