<svg width="140" height="100" viewBox="0 0 140 100" fill="none" xmlns="http://www.w3.org/2000/svg">
  <defs>
    <linearGradient id="bg2" x1="0%" y1="0%" x2="100%" y2="100%">
      <stop offset="0%" style="stop-color:#f8fafc;stop-opacity:1" />
      <stop offset="100%" style="stop-color:#e2e8f0;stop-opacity:1" />
    </linearGradient>
    <linearGradient id="gear1" x1="0%" y1="0%" x2="100%" y2="100%">
      <stop offset="0%" style="stop-color:#f59e0b;stop-opacity:1" />
      <stop offset="100%" style="stop-color:#d97706;stop-opacity:1" />
    </linearGradient>
    <linearGradient id="target1" x1="0%" y1="0%" x2="100%" y2="100%">
      <stop offset="0%" style="stop-color:#10b981;stop-opacity:1" />
      <stop offset="100%" style="stop-color:#059669;stop-opacity:1" />
    </linearGradient>
    <linearGradient id="arrow1" x1="0%" y1="0%" x2="100%" y2="100%">
      <stop offset="0%" style="stop-color:#3b82f6;stop-opacity:1" />
      <stop offset="100%" style="stop-color:#1e40af;stop-opacity:1" />
    </linearGradient>
    <filter id="shadow2" x="-20%" y="-20%" width="140%" height="140%">
      <feDropShadow dx="0" dy="4" stdDeviation="8" flood-color="#000000" flood-opacity="0.15"/>
    </filter>
    <filter id="glow2" x="-50%" y="-50%" width="200%" height="200%">
      <feGaussianBlur stdDeviation="2" result="coloredBlur"/>
      <feMerge>
        <feMergeNode in="coloredBlur"/>
        <feMergeNode in="SourceGraphic"/>
      </feMerge>
    </filter>
  </defs>

  <rect width="140" height="100" rx="12" fill="url(#bg2)"/>

  <!-- 自动化齿轮系统 -->
  <g transform="translate(15, 20)">
    <!-- 主齿轮 -->
    <g transform="translate(25, 25)">
      <circle cx="0" cy="0" r="20" fill="url(#gear1)" filter="url(#shadow2)"/>
      <circle cx="0" cy="0" r="8" fill="#ffffff"/>

      <!-- 齿轮齿 -->
      <rect x="-2" y="-28" width="4" height="12" rx="2" fill="#ffffff"/>
      <rect x="-2" y="16" width="4" height="12" rx="2" fill="#ffffff"/>
      <rect x="-28" y="-2" width="12" height="4" rx="2" fill="#ffffff"/>
      <rect x="16" y="-2" width="12" height="4" rx="2" fill="#ffffff"/>

      <!-- 对角齿 -->
      <rect x="-20" y="-20" width="8" height="8" rx="4" fill="#ffffff"/>
      <rect x="12" y="-20" width="8" height="8" rx="4" fill="#ffffff"/>
      <rect x="-20" y="12" width="8" height="8" rx="4" fill="#ffffff"/>
      <rect x="12" y="12" width="8" height="8" rx="4" fill="#ffffff"/>
    </g>

    <!-- 智能箭头 -->
    <g transform="translate(70, 25)">
      <path d="M 0 0 L 25 0" stroke="url(#arrow1)" stroke-width="4" fill="none" stroke-linecap="round" filter="url(#glow2)"/>
      <path d="M 20 -6 L 25 0 L 20 6" stroke="url(#arrow1)" stroke-width="4" fill="none" stroke-linecap="round" stroke-linejoin="round" filter="url(#glow2)"/>
    </g>

    <!-- 部署目标 -->
    <g transform="translate(100, 15)">
      <rect x="0" y="0" width="40" height="30" rx="8" fill="url(#target1)" filter="url(#shadow2)"/>
      <rect x="6" y="6" width="28" height="4" rx="2" fill="#ffffff" opacity="0.9"/>
      <rect x="6" y="12" width="22" height="3" rx="1.5" fill="#ffffff" opacity="0.7"/>
      <rect x="6" y="17" width="26" height="3" rx="1.5" fill="#ffffff" opacity="0.7"/>
      <rect x="6" y="22" width="18" height="3" rx="1.5" fill="#ffffff" opacity="0.7"/>
    </g>
  </g>

  <!-- 自动化流程指示器 -->
  <g transform="translate(15, 65)">
    <circle cx="0" cy="0" r="4" fill="#f59e0b"/>
    <circle cx="20" cy="0" r="4" fill="#3b82f6"/>
    <circle cx="40" cy="0" r="4" fill="#10b981"/>
    <circle cx="60" cy="0" r="4" fill="#8b5cf6"/>
    <circle cx="80" cy="0" r="4" fill="#ef4444"/>
    <circle cx="100" cy="0" r="4" fill="#06b6d4"/>

    <!-- 连接线 -->
    <path d="M 4 0 L 16 0" stroke="#6b7280" stroke-width="2" fill="none" stroke-linecap="round"/>
    <path d="M 24 0 L 36 0" stroke="#6b7280" stroke-width="2" fill="none" stroke-linecap="round"/>
    <path d="M 44 0 L 56 0" stroke="#6b7280" stroke-width="2" fill="none" stroke-linecap="round"/>
    <path d="M 64 0 L 76 0" stroke="#6b7280" stroke-width="2" fill="none" stroke-linecap="round"/>
    <path d="M 84 0 L 96 0" stroke="#6b7280" stroke-width="2" fill="none" stroke-linecap="round"/>
  </g>

  <!-- 状态指示器 -->
  <g transform="translate(20, 80)">
    <rect x="0" y="0" width="8" height="8" rx="2" fill="#10b981"/>
    <rect x="12" y="0" width="8" height="8" rx="2" fill="#10b981"/>
    <rect x="24" y="0" width="8" height="8" rx="2" fill="#f59e0b"/>
    <rect x="36" y="0" width="8" height="8" rx="2" fill="#10b981"/>
    <rect x="48" y="0" width="8" height="8" rx="2" fill="#10b981"/>
  </g>

  <!-- 自动化标识 -->
  <g transform="translate(100, 80)">
    <rect x="0" y="0" width="30" height="15" rx="3" fill="#f59e0b" opacity="0.8"/>
    <text x="15" y="10" text-anchor="middle" font-family="Arial, sans-serif" font-size="8" fill="#ffffff" font-weight="bold">AUTO</text>
  </g>
</svg>