<svg width="140" height="100" viewBox="0 0 140 100" fill="none" xmlns="http://www.w3.org/2000/svg">
  <defs>
    <!-- 背景渐变 -->
    <linearGradient id="bgGradient" x1="0%" y1="0%" x2="100%" y2="100%">
      <stop offset="0%" style="stop-color:#f8fafc;stop-opacity:1" />
      <stop offset="100%" style="stop-color:#f1f5f9;stop-opacity:1" />
    </linearGradient>
    
    <!-- 节点1 - 浅蓝色 -->
    <linearGradient id="node1Gradient" x1="0%" y1="0%" x2="100%" y2="100%">
      <stop offset="0%" style="stop-color:#718096;stop-opacity:0.8" />
      <stop offset="100%" style="stop-color:#4a5568;stop-opacity:0.8" />
    </linearGradient>
    
    <!-- 节点2 - 浅绿色 -->
    <linearGradient id="node2Gradient" x1="0%" y1="0%" x2="100%" y2="100%">
      <stop offset="0%" style="stop-color:#2d3748;stop-opacity:0.8" />
      <stop offset="100%" style="stop-color:#1a202c;stop-opacity:0.8" />
    </linearGradient>
    
    <!-- 节点3 - 浅黄色 -->
    <linearGradient id="node3Gradient" x1="0%" y1="0%" x2="100%" y2="100%">
      <stop offset="0%" style="stop-color:#4a5568;stop-opacity:0.8" />
      <stop offset="100%" style="stop-color:#2d3748;stop-opacity:0.8" />
    </linearGradient>
    
    <!-- 节点4 - 浅紫色 -->
    <linearGradient id="node4Gradient" x1="0%" y1="0%" x2="100%" y2="100%">
      <stop offset="0%" style="stop-color:#718096;stop-opacity:0.8" />
      <stop offset="100%" style="stop-color:#4a5568;stop-opacity:0.8" />
    </linearGradient>
    
    <!-- 负载均衡器 - 浅红色 -->
    <linearGradient id="loadbalancerGradient" x1="0%" y1="0%" x2="100%" y2="100%">
      <stop offset="0%" style="stop-color:#718096;stop-opacity:0.8" />
      <stop offset="100%" style="stop-color:#4a5568;stop-opacity:0.8" />
    </linearGradient>
    
    <!-- 阴影效果 -->
    <filter id="shadow" x="-20%" y="-20%" width="140%" height="140%">
      <feDropShadow dx="0" dy="2" stdDeviation="4" flood-color="#000000" flood-opacity="0.08"/>
    </filter>
  </defs>

  <!-- 背景 -->
  <rect width="140" height="100" rx="12" fill="url(#bgGradient)" stroke="#e2e8f0" stroke-width="1"/>

  <!-- 负载均衡器 -->
  <g transform="translate(15, 10)">
    <rect x="0" y="0" width="110" height="20" rx="8" fill="url(#loadbalancerGradient)" filter="url(#shadow)" stroke="#718096" stroke-width="1">
      <animate attributeName="opacity" values="0.8;1;0.8" dur="3s" repeatCount="indefinite"/>
    </rect>
    <rect x="8" y="6" width="94" height="3" rx="1.5" fill="white" opacity="0.8"/>
    <rect x="8" y="11" width="80" height="3" rx="1.5" fill="white" opacity="0.6"/>
    <rect x="8" y="16" width="90" height="3" rx="1.5" fill="white" opacity="0.6"/>
  </g>

  <!-- 分布式节点 -->
  <g transform="translate(15, 40)">
    <!-- 节点1 -->
    <g transform="translate(0, 0)">
      <circle cx="15" cy="15" r="12" fill="url(#node1Gradient)" filter="url(#shadow)" stroke="#718096" stroke-width="1">
        <animate attributeName="opacity" values="0.8;1;0.8" dur="3s" repeatCount="indefinite"/>
      </circle>
      <rect x="9" y="9" width="12" height="3" rx="1.5" fill="white" opacity="0.8"/>
      <rect x="9" y="14" width="8" height="2" rx="1" fill="white" opacity="0.6"/>
      <rect x="9" y="17" width="10" height="2" rx="1" fill="white" opacity="0.6"/>
    </g>

    <!-- 节点2 -->
    <g transform="translate(35, 0)">
      <circle cx="15" cy="15" r="12" fill="url(#node2Gradient)" filter="url(#shadow)" stroke="#2d3748" stroke-width="1">
        <animate attributeName="opacity" values="0.8;1;0.8" dur="3s" repeatCount="indefinite" begin="0.5s"/>
      </circle>
      <rect x="9" y="9" width="12" height="3" rx="1.5" fill="white" opacity="0.8"/>
      <rect x="9" y="14" width="8" height="2" rx="1" fill="white" opacity="0.6"/>
      <rect x="9" y="17" width="10" height="2" rx="1" fill="white" opacity="0.6"/>
    </g>

    <!-- 节点3 -->
    <g transform="translate(70, 0)">
      <circle cx="15" cy="15" r="12" fill="url(#node3Gradient)" filter="url(#shadow)" stroke="#4a5568" stroke-width="1">
        <animate attributeName="opacity" values="0.8;1;0.8" dur="3s" repeatCount="indefinite" begin="1s"/>
      </circle>
      <rect x="9" y="9" width="12" height="3" rx="1.5" fill="white" opacity="0.8"/>
      <rect x="9" y="14" width="8" height="2" rx="1" fill="white" opacity="0.6"/>
      <rect x="9" y="17" width="10" height="2" rx="1" fill="white" opacity="0.6"/>
    </g>

    <!-- 节点4 -->
    <g transform="translate(105, 0)">
      <circle cx="15" cy="15" r="12" fill="url(#node4Gradient)" filter="url(#shadow)" stroke="#718096" stroke-width="1">
        <animate attributeName="opacity" values="0.8;1;0.8" dur="3s" repeatCount="indefinite" begin="1.5s"/>
      </circle>
      <rect x="9" y="9" width="12" height="3" rx="1.5" fill="white" opacity="0.8"/>
      <rect x="9" y="14" width="8" height="2" rx="1" fill="white" opacity="0.6"/>
      <rect x="9" y="17" width="10" height="2" rx="1" fill="white" opacity="0.6"/>
    </g>
  </g>

  <!-- 连接网络 -->
  <g transform="translate(15, 40)" stroke="#cbd5e1" stroke-width="2" fill="none" stroke-dasharray="4,4" opacity="0.5">
    <!-- 从负载均衡器到各节点的连接 -->
    <path d="M 55 20 L 15 40">
      <animate attributeName="stroke-dasharray" values="4,4;8,4;4,4" dur="3s" repeatCount="indefinite"/>
    </path>
    <path d="M 55 20 L 50 40">
      <animate attributeName="stroke-dasharray" values="4,4;8,4;4,4" dur="3s" repeatCount="indefinite" begin="0.5s"/>
    </path>
    <path d="M 55 20 L 85 40">
      <animate attributeName="stroke-dasharray" values="4,4;8,4;4,4" dur="3s" repeatCount="indefinite" begin="1s"/>
    </path>
    <path d="M 55 20 L 120 40">
      <animate attributeName="stroke-dasharray" values="4,4;8,4;4,4" dur="3s" repeatCount="indefinite" begin="1.5s"/>
    </path>

    <!-- 节点间连接 -->
    <path d="M 27 15 L 50 15" stroke-width="1.5" stroke-dasharray="3,3" opacity="0.4"/>
    <path d="M 62 15 L 85 15" stroke-width="1.5" stroke-dasharray="3,3" opacity="0.4"/>
    <path d="M 97 15 L 120 15" stroke-width="1.5" stroke-dasharray="3,3" opacity="0.4"/>
  </g>

  <!-- 负载指示器 -->
  <g transform="translate(15, 70)">
    <rect x="0" y="0" width="110" height="8" rx="4" fill="#e2e8f0"/>
    <rect x="2" y="2" width="25" height="4" rx="2" fill="#718096" opacity="0.8">
      <animate attributeName="opacity" values="0.8;1;0.8" dur="2s" repeatCount="indefinite"/>
    </rect>
    <rect x="29" y="2" width="25" height="4" rx="2" fill="#2d3748" opacity="0.8">
      <animate attributeName="opacity" values="0.8;1;0.8" dur="2s" repeatCount="indefinite" begin="0.3s"/>
    </rect>
    <rect x="56" y="2" width="25" height="4" rx="2" fill="#4a5568" opacity="0.8">
      <animate attributeName="opacity" values="0.8;1;0.8" dur="2s" repeatCount="indefinite" begin="0.6s"/>
    </rect>
    <rect x="83" y="2" width="25" height="4" rx="2" fill="#718096" opacity="0.8">
      <animate attributeName="opacity" values="0.8;1;0.8" dur="2s" repeatCount="indefinite" begin="0.9s"/>
    </rect>
  </g>

  <!-- 分布式状态指示器 -->
  <g transform="translate(15, 85)">
    <circle cx="0" cy="0" r="3" fill="#2d3748" opacity="0.8">
      <animate attributeName="opacity" values="0.8;1;0.8" dur="2s" repeatCount="indefinite"/>
    </circle>
    <circle cx="15" cy="0" r="3" fill="#2d3748" opacity="0.8">
      <animate attributeName="opacity" values="0.8;1;0.8" dur="2s" repeatCount="indefinite" begin="0.3s"/>
    </circle>
    <circle cx="30" cy="0" r="3" fill="#4a5568" opacity="0.8">
      <animate attributeName="opacity" values="0.8;1;0.8" dur="2s" repeatCount="indefinite" begin="0.6s"/>
    </circle>
    <circle cx="45" cy="0" r="3" fill="#2d3748" opacity="0.8">
      <animate attributeName="opacity" values="0.8;1;0.8" dur="2s" repeatCount="indefinite" begin="0.9s"/>
    </circle>
    <circle cx="60" cy="0" r="3" fill="#2d3748" opacity="0.8">
      <animate attributeName="opacity" values="0.8;1;0.8" dur="2s" repeatCount="indefinite" begin="1.2s"/>
    </circle>
  </g>

  <!-- 分布式标识 -->
  <g transform="translate(100, 85)">
    <rect x="0" y="0" width="25" height="12" rx="3" fill="url(#loadbalancerGradient)" opacity="0.8" stroke="#718096" stroke-width="0.5">
      <animate attributeName="opacity" values="0.8;1;0.8" dur="2s" repeatCount="indefinite"/>
    </rect>
    <text x="12.5" y="8" text-anchor="middle" font-family="system-ui, -apple-system, sans-serif" font-size="7" fill="white" font-weight="600">DIST</text>
  </g>

  <!-- 负载均衡指示器 -->
  <g transform="translate(70, 85)">
    <rect x="0" y="0" width="15" height="8" rx="2" fill="#2d3748" opacity="0.8" stroke="#1a202c" stroke-width="0.5">
      <animate attributeName="opacity" values="0.8;1;0.8" dur="2s" repeatCount="indefinite"/>
    </rect>
    <text x="7.5" y="6" text-anchor="middle" font-family="system-ui, -apple-system, sans-serif" font-size="6" fill="white" font-weight="600">LB</text>
  </g>
</svg>