 <svg width="140" height="100" viewBox="0 0 140 100" fill="none" xmlns="http://www.w3.org/2000/svg">
  <defs>
    <linearGradient id="bg1" x1="0%" y1="0%" x2="100%" y2="100%">
      <stop offset="0%" style="stop-color:#f8fafc;stop-opacity:1" />
      <stop offset="100%" style="stop-color:#e2e8f0;stop-opacity:1" />
    </linearGradient>
    <linearGradient id="server1" x1="0%" y1="0%" x2="100%" y2="100%">
      <stop offset="0%" style="stop-color:#1e40af;stop-opacity:1" />
      <stop offset="100%" style="stop-color:#1e3a8a;stop-opacity:1" />
    </linearGradient>
    <linearGradient id="lock1" x1="0%" y1="0%" x2="100%" y2="100%">
      <stop offset="0%" style="stop-color:#059669;stop-opacity:1" />
      <stop offset="100%" style="stop-color:#047857;stop-opacity:1" />
    </linearGradient>
    <linearGradient id="shield1" x1="0%" y1="0%" x2="100%" y2="100%">
      <stop offset="0%" style="stop-color:#dc2626;stop-opacity:1" />
      <stop offset="100%" style="stop-color:#b91c1c;stop-opacity:1" />
    </linearGradient>
    <filter id="shadow1" x="-20%" y="-20%" width="140%" height="140%">
      <feDropShadow dx="0" dy="4" stdDeviation="8" flood-color="#000000" flood-opacity="0.15"/>
    </filter>
    <filter id="glow1" x="-50%" y="-50%" width="200%" height="200%">
      <feGaussianBlur stdDeviation="3" result="coloredBlur"/>
      <feMerge>
        <feMergeNode in="coloredBlur"/>
        <feMergeNode in="SourceGraphic"/>
      </feMerge>
    </filter>
  </defs>

  <rect width="140" height="100" rx="12" fill="url(#bg1)"/>

  <!-- 企业服务器集群 -->
  <g transform="translate(20, 20)">
    <!-- 主服务器 -->
    <rect x="0" y="0" width="45" height="35" rx="8" fill="url(#server1)" filter="url(#shadow1)"/>
    <rect x="6" y="6" width="33" height="4" rx="2" fill="#ffffff" opacity="0.9"/>
    <rect x="6" y="12" width="25" height="3" rx="1.5" fill="#ffffff" opacity="0.7"/>
    <rect x="6" y="17" width="30" height="3" rx="1.5" fill="#ffffff" opacity="0.7"/>
    <rect x="6" y="22" width="20" height="3" rx="1.5" fill="#ffffff" opacity="0.7"/>
    <rect x="6" y="27" width="28" height="3" rx="1.5" fill="#ffffff" opacity="0.7"/>

    <!-- 安全锁 -->
    <g transform="translate(50, 8)">
      <circle cx="0" cy="0" r="12" fill="url(#lock1)" filter="url(#shadow1)"/>
      <rect x="-4" y="-2" width="8" height="12" rx="2" fill="#ffffff"/>
      <rect x="-3" y="-6" width="6" height="6" rx="2" fill="#ffffff"/>
    </g>

    <!-- 防护盾牌 -->
    <g transform="translate(75, 8)">
      <path d="M 0 -8 L 6 -4 L 6 4 L 0 8 L -6 4 L -6 -4 Z" fill="url(#shield1)" filter="url(#shadow1)"/>
      <path d="M -2 -2 L 2 -2 L 2 2 L -2 2 Z" fill="#ffffff"/>
    </g>
  </g>

  <!-- 网络连接线 -->
  <g transform="translate(15, 65)">
    <path d="M 0 0 L 110 0" stroke="#6b7280" stroke-width="2" stroke-dasharray="4,4" opacity="0.6"/>
    <circle cx="0" cy="0" r="3" fill="#3b82f6"/>
    <circle cx="35" cy="0" r="3" fill="#10b981"/>
    <circle cx="70" cy="0" r="3" fill="#f59e0b"/>
    <circle cx="105" cy="0" r="3" fill="#ef4444"/>
  </g>

  <!-- 安全状态指示器 -->
  <g transform="translate(20, 80)">
    <circle cx="0" cy="0" r="4" fill="#10b981"/>
    <circle cx="15" cy="0" r="4" fill="#10b981"/>
    <circle cx="30" cy="0" r="4" fill="#10b981"/>
    <circle cx="45" cy="0" r="4" fill="#10b981"/>
  </g>

  <!-- 企业标识 -->
  <g transform="translate(100, 80)">
    <rect x="0" y="0" width="25" height="15" rx="3" fill="#1e40af" opacity="0.8"/>
    <text x="12.5" y="10" text-anchor="middle" font-family="Arial, sans-serif" font-size="8" fill="#ffffff" font-weight="bold">ENT</text>
  </g>
</svg>