<svg width="200" height="200" viewBox="0 0 200 200" xmlns="http://www.w3.org/2000/svg">
  <!-- Background circle -->
  <circle cx="100" cy="100" r="90" fill="none" stroke="#4F46E5" stroke-width="2" opacity="0.2"/>
  
  <!-- Central AI brain -->
  <circle cx="100" cy="100" r="25" fill="#4F46E5" opacity="0.1" stroke="#4F46E5" stroke-width="2"/>
  <path d="M85 95 Q100 85 115 95 Q110 105 100 110 Q90 105 85 95" fill="#4F46E5"/>
  
  <!-- Neural network connections -->
  <g stroke="#4F46E5" stroke-width="1.5" fill="none">
    <!-- Top connections -->
    <line x1="100" y1="75" x2="100" y2="40"/>
    <line x1="85" y1="85" x2="60" y2="50"/>
    <line x1="115" y1="85" x2="140" y2="50"/>
    
    <!-- Side connections -->
    <line x1="75" y1="100" x2="40" y2="100"/>
    <line x1="125" y1="100" x2="160" y2="100"/>
    
    <!-- Bottom connections -->
    <line x1="85" y1="115" x2="60" y2="150"/>
    <line x1="100" y1="125" x2="100" y2="160"/>
    <line x1="115" y1="115" x2="140" y2="150"/>
  </g>
  
  <!-- External nodes representing applications -->
  <g fill="#10B981" stroke="#10B981" stroke-width="2">
    <circle cx="100" cy="40" r="8"/>
    <circle cx="60" cy="50" r="8"/>
    <circle cx="140" cy="50" r="8"/>
    <circle cx="40" cy="100" r="8"/>
    <circle cx="160" cy="100" r="8"/>
    <circle cx="60" cy="150" r="8"/>
    <circle cx="100" cy="160" r="8"/>
    <circle cx="140" cy="150" r="8"/>
  </g>
  
  <!-- Dynamic flow indicators -->
  <g fill="#F59E0B">
    <circle cx="70" cy="75" r="3">
      <animate attributeName="opacity" values="0.3;1;0.3" dur="2s" repeatCount="indefinite"/>
    </circle>
    <circle cx="130" cy="75" r="3">
      <animate attributeName="opacity" values="1;0.3;1" dur="2s" repeatCount="indefinite"/>
    </circle>
    <circle cx="70" cy="125" r="3">
      <animate attributeName="opacity" values="0.3;1;0.3" dur="2s" repeatCount="indefinite" begin="0.5s"/>
    </circle>
    <circle cx="130" cy="125" r="3">
      <animate attributeName="opacity" values="1;0.3;1" dur="2s" repeatCount="indefinite" begin="0.5s"/>
    </circle>
  </g>
  

</svg> 