<svg width="200" height="200" viewBox="0 0 200 200" xmlns="http://www.w3.org/2000/svg">
  <!-- 定义渐变和动画 -->
  <defs>
    <!-- DevOps循环渐变 -->
    <linearGradient id="devopsGradient" x1="0%" y1="0%" x2="100%" y2="100%">
      <stop offset="0%" style="stop-color:#4F46E5;stop-opacity:1" />
      <stop offset="50%" style="stop-color:#7C3AED;stop-opacity:1" />
      <stop offset="100%" style="stop-color:#EC4899;stop-opacity:1" />
    </linearGradient>
    
    <!-- 自动化管道渐变 -->
    <linearGradient id="pipelineGradient" x1="0%" y1="0%" x2="100%" y2="0%">
      <stop offset="0%" style="stop-color:#10B981;stop-opacity:1" />
      <stop offset="50%" style="stop-color:#06B6D4;stop-opacity:1" />
      <stop offset="100%" style="stop-color:#3B82F6;stop-opacity:1" />
    </linearGradient>
    
    <!-- 监控渐变 -->
    <radialGradient id="monitorGradient" cx="50%" cy="50%" r="50%">
      <stop offset="0%" style="stop-color:#F59E0B;stop-opacity:1" />
      <stop offset="100%" style="stop-color:#EF4444;stop-opacity:0.8" />
    </radialGradient>
    
    <!-- 箭头标记 -->
    <marker id="flowArrow" markerWidth="10" markerHeight="10" refX="8" refY="3" orient="auto" markerUnits="strokeWidth">
      <path d="M0,0 L0,6 L9,3 z" fill="#6366F1"/>
    </marker>
    
    <!-- 数据流箭头 -->
    <marker id="dataArrow" markerWidth="8" markerHeight="8" refX="6" refY="3" orient="auto">
      <path d="M0,0 L0,6 L6,3 z" fill="#10B981"/>
    </marker>
  </defs>
  
  <!-- 背景 -->
  <rect x="10" y="10" width="180" height="180" fill="#F8FAFC" stroke="#E2E8F0" stroke-width="2" rx="12"/>
  
  <!-- DevOps无限循环符号 -->
  <g transform="translate(100,50)">
    <!-- 无限符号路径 -->
    <path d="M-25,0 C-25,-15 -10,-15 0,0 C10,15 25,15 25,0 C25,-15 10,-15 0,0 C-10,15 -25,15 -25,0 Z" 
          fill="none" stroke="url(#devopsGradient)" stroke-width="4" opacity="0.8">
      <animate attributeName="stroke-dasharray" values="0,200;100,200;200,200" dur="3s" repeatCount="indefinite"/>
      <animate attributeName="stroke-dashoffset" values="0;-100;-200" dur="3s" repeatCount="indefinite"/>
    </path>
    
    <!-- Dev标识 -->
    <circle cx="-15" cy="0" r="8" fill="#4F46E5" opacity="0.9">
      <animate attributeName="r" values="8;10;8" dur="2s" repeatCount="indefinite"/>
    </circle>
    <text x="-15" y="3" text-anchor="middle" fill="white" font-size="8" font-weight="bold">D</text>
    
    <!-- Ops标识 -->
    <circle cx="15" cy="0" r="8" fill="#EC4899" opacity="0.9">
      <animate attributeName="r" values="8;10;8" dur="2s" repeatCount="indefinite" begin="1s"/>
    </circle>
    <text x="15" y="3" text-anchor="middle" fill="white" font-size="8" font-weight="bold">O</text>
  </g>
  
  <!-- CI/CD管道 -->
  <g transform="translate(30,90)">
    <!-- 管道背景 -->
    <rect x="0" y="0" width="140" height="30" rx="15" fill="url(#pipelineGradient)" opacity="0.3"/>
    <rect x="0" y="0" width="140" height="30" rx="15" fill="none" stroke="url(#pipelineGradient)" stroke-width="2"/>
    
    <!-- 管道阶段 -->
    <g>
      <!-- Code -->
      <circle cx="20" cy="15" r="8" fill="#10B981" stroke="#059669" stroke-width="2">
        <animate attributeName="fill" values="#10B981;#34D399;#10B981" dur="4s" repeatCount="indefinite"/>
      </circle>
      <text x="20" y="18" text-anchor="middle" fill="white" font-size="6" font-weight="bold">C</text>
      
      <!-- Build -->
      <rect x="42" y="7" width="16" height="16" rx="2" fill="#F59E0B" stroke="#D97706" stroke-width="2">
        <animate attributeName="fill" values="#F59E0B;#FBBF24;#F59E0B" dur="4s" repeatCount="indefinite" begin="1s"/>
      </rect>
      <text x="50" y="17" text-anchor="middle" fill="white" font-size="6" font-weight="bold">B</text>
      
      <!-- Test -->
      <polygon points="70,7 86,7 78,23" fill="#8B5CF6" stroke="#7C3AED" stroke-width="2">
        <animate attributeName="fill" values="#8B5CF6;#A78BFA;#8B5CF6" dur="4s" repeatCount="indefinite" begin="2s"/>
      </polygon>
      <text x="78" y="16" text-anchor="middle" fill="white" font-size="6" font-weight="bold">T</text>
      
      <!-- Deploy -->
      <circle cx="120" cy="15" r="8" fill="#EF4444" stroke="#DC2626" stroke-width="2">
        <animate attributeName="fill" values="#EF4444;#F87171;#EF4444" dur="4s" repeatCount="indefinite" begin="3s"/>
      </circle>
      <text x="120" y="18" text-anchor="middle" fill="white" font-size="6" font-weight="bold">D</text>
    </g>
    
    <!-- 数据流动 -->
    <g fill="none" stroke="#10B981" stroke-width="2" marker-end="url(#dataArrow)">
      <line x1="28" y1="15" x2="42" y2="15">
        <animate attributeName="stroke-dasharray" values="0,20;10,20" dur="1s" repeatCount="indefinite"/>
      </line>
      <line x1="58" y1="15" x2="70" y2="15">
        <animate attributeName="stroke-dasharray" values="0,20;10,20" dur="1s" repeatCount="indefinite" begin="1s"/>
      </line>
      <line x1="86" y1="15" x2="112" y2="15">
        <animate attributeName="stroke-dasharray" values="0,20;10,20" dur="1s" repeatCount="indefinite" begin="2s"/>
      </line>
    </g>
  </g>
  
  <!-- 自动化齿轮组 -->
  <g transform="translate(40,140)">
    <!-- 大齿轮 -->
    <circle cx="0" cy="0" r="12" fill="#6366F1" stroke="#4F46E5" stroke-width="2" opacity="0.9">
      <animateTransform attributeName="transform" type="rotate" values="0;360" dur="4s" repeatCount="indefinite"/>
    </circle>
    <g stroke="white" stroke-width="2" fill="none">
      <circle cx="0" cy="0" r="6"/>
      <path d="M-8,0 L8,0 M0,-8 L0,8 M-6,-6 L6,6 M6,-6 L-6,6"/>
    </g>
    
    <!-- 中齿轮 -->
    <circle cx="25" cy="-5" r="8" fill="#8B5CF6" stroke="#7C3AED" stroke-width="2" opacity="0.9">
      <animateTransform attributeName="transform" type="rotate" values="360;0" dur="3s" repeatCount="indefinite"/>
    </circle>
    <g stroke="white" stroke-width="1.5" fill="none">
      <circle cx="25" cy="-5" r="4"/>
      <path d="M21,-5 L29,-5 M25,-9 L25,-1"/>
    </g>
    
    <!-- 小齿轮 -->
    <circle cx="15" cy="15" r="6" fill="#10B981" stroke="#059669" stroke-width="2" opacity="0.9">
      <animateTransform attributeName="transform" type="rotate" values="0;360" dur="2s" repeatCount="indefinite"/>
    </circle>
    <g stroke="white" stroke-width="1" fill="none">
      <circle cx="15" cy="15" r="3"/>
      <path d="M12,15 L18,15 M15,12 L15,18"/>
    </g>
  </g>
  
  <!-- 监控仪表盘 -->
  <g transform="translate(140,140)">
    <!-- 仪表盘背景 -->
    <circle cx="0" cy="0" r="15" fill="url(#monitorGradient)" stroke="#F59E0B" stroke-width="2" opacity="0.9"/>
    
    <!-- 仪表盘刻度 -->
    <g stroke="white" stroke-width="1" opacity="0.8">
      <line x1="0" y1="-12" x2="0" y2="-10"/>
      <line x1="8.5" y1="-8.5" x2="7.5" y2="-7.5"/>
      <line x1="12" y1="0" x2="10" y2="0"/>
      <line x1="8.5" y1="8.5" x2="7.5" y2="7.5"/>
      <line x1="0" y1="12" x2="0" y2="10"/>
      <line x1="-8.5" y1="8.5" x2="-7.5" y2="7.5"/>
      <line x1="-12" y1="0" x2="-10" y2="0"/>
      <line x1="-8.5" y1="-8.5" x2="-7.5" y2="-7.5"/>
    </g>
    
    <!-- 动态指针 -->
    <line x1="0" y1="0" x2="0" y2="-8" stroke="white" stroke-width="2">
      <animateTransform attributeName="transform" type="rotate" values="0;180;360" dur="3s" repeatCount="indefinite"/>
    </line>
    
    <!-- 中心点 -->
    <circle cx="0" cy="0" r="2" fill="white"/>
  </g>
  
  <!-- 云部署 -->
  <g transform="translate(150,100)">
    <!-- 云朵 -->
    <path d="M0,0 C-5,-5 -15,-5 -15,0 C-20,-3 -25,2 -20,5 C-25,8 -20,13 -15,10 C-10,15 0,15 5,10 C10,15 15,10 10,5 C15,2 10,-3 5,0 Z" 
          fill="#06B6D4" stroke="#0891B2" stroke-width="2" opacity="0.8">
      <animate attributeName="opacity" values="0.8;1;0.8" dur="3s" repeatCount="indefinite"/>
    </path>
    
    <!-- 云中的服务器图标 -->
    <rect x="-8" y="2" width="6" height="4" rx="1" fill="white" opacity="0.9"/>
    <rect x="-1" y="2" width="6" height="4" rx="1" fill="white" opacity="0.9"/>
    <circle cx="-5" cy="4" r="0.5" fill="#06B6D4"/>
    <circle cx="2" cy="4" r="0.5" fill="#06B6D4"/>
  </g>
  
  <!-- 自动化波纹效果 -->
  <g transform="translate(100,100)">
    <circle cx="0" cy="0" r="30" fill="none" stroke="#6366F1" stroke-width="1" opacity="0.3">
      <animate attributeName="r" values="30;60;30" dur="4s" repeatCount="indefinite"/>
      <animate attributeName="opacity" values="0.3;0.1;0.3" dur="4s" repeatCount="indefinite"/>
    </circle>
    <circle cx="0" cy="0" r="40" fill="none" stroke="#8B5CF6" stroke-width="1" opacity="0.2">
      <animate attributeName="r" values="40;70;40" dur="4s" repeatCount="indefinite" begin="1s"/>
      <animate attributeName="opacity" values="0.2;0.05;0.2" dur="4s" repeatCount="indefinite" begin="1s"/>
    </circle>
  </g>
  
  <!-- 状态指示器 -->
  <g transform="translate(170,30)">
    <!-- 绿色运行状态 -->
    <circle cx="0" cy="0" r="4" fill="#10B981">
      <animate attributeName="opacity" values="0.5;1;0.5" dur="2s" repeatCount="indefinite"/>
    </circle>
    <text x="0" y="15" text-anchor="middle" fill="#6B7280" font-size="8">AUTO</text>
  </g>
  
  <!-- 数据流粒子 -->
  <g>
    <circle cx="30" cy="105" r="1" fill="#10B981" opacity="0.8">
      <animate attributeName="cx" values="30;170" dur="3s" repeatCount="indefinite"/>
      <animate attributeName="opacity" values="0.8;0.3;0.8" dur="3s" repeatCount="indefinite"/>
    </circle>
    <circle cx="30" cy="105" r="1" fill="#3B82F6" opacity="0.6">
      <animate attributeName="cx" values="30;170" dur="3s" repeatCount="indefinite" begin="1s"/>
      <animate attributeName="opacity" values="0.6;0.2;0.6" dur="3s" repeatCount="indefinite" begin="1s"/>
    </circle>
    <circle cx="30" cy="105" r="1" fill="#8B5CF6" opacity="0.7">
      <animate attributeName="cx" values="30;170" dur="3s" repeatCount="indefinite" begin="2s"/>
      <animate attributeName="opacity" values="0.7;0.2;0.7" dur="3s" repeatCount="indefinite" begin="2s"/>
    </circle>
  </g>
</svg> 