<svg width="200" height="200" viewBox="0 0 200 200" xmlns="http://www.w3.org/2000/svg">
  <!-- Background -->
  <rect x="10" y="10" width="180" height="180" fill="#F8FAFC" stroke="#E2E8F0" stroke-width="2" rx="10"/>
  
  <!-- DevOps Pipeline -->
  <g>
    <!-- Code stage -->
    <rect x="30" y="50" width="30" height="25" rx="5" fill="#3B82F6" stroke="#2563EB" stroke-width="2"/>
    <rect x="35" y="57" width="20" height="3" rx="1" fill="white" opacity="0.8"/>
    <rect x="35" y="62" width="15" height="3" rx="1" fill="white" opacity="0.6"/>
    <rect x="35" y="67" width="18" height="3" rx="1" fill="white" opacity="0.4"/>
    
    <!-- Build stage -->
    <rect x="80" y="50" width="30" height="25" rx="5" fill="#10B981" stroke="#059669" stroke-width="2"/>
    <circle cx="95" cy="62" r="8" fill="white" opacity="0.2"/>
    <path d="M90,58 L95,63 L100,58" stroke="white" stroke-width="2" fill="none"/>
    
    <!-- Test stage -->
    <rect x="130" y="50" width="30" height="25" rx="5" fill="#F59E0B" stroke="#D97706" stroke-width="2"/>
    <circle cx="145" cy="62" r="6" fill="white" opacity="0.3"/>
    <path d="M140,62 L143,65 L150,58" stroke="white" stroke-width="2" fill="none"/>
    
    <!-- Deploy stage -->
    <rect x="80" y="90" width="30" height="25" rx="5" fill="#EF4444" stroke="#DC2626" stroke-width="2"/>
    <path d="M90,97 L95,102 L100,97 L100,108 L90,108 Z" fill="white" opacity="0.7"/>
    
    <!-- Monitor stage -->
    <rect x="130" y="90" width="30" height="25" rx="5" fill="#8B5CF6" stroke="#7C3AED" stroke-width="2"/>
    <circle cx="145" cy="102" r="6" fill="white" opacity="0.3"/>
    <path d="M140,102 L145,97 L150,102 L145,107 Z" fill="white" opacity="0.5"/>
  </g>
  
  <!-- Pipeline arrows -->
  <g stroke="#6B7280" stroke-width="2" fill="none" marker-end="url(#pipelineArrow)">
    <line x1="60" y1="62" x2="80" y2="62"/>
    <line x1="110" y1="62" x2="130" y2="62"/>
    <line x1="145" y1="75" x2="110" y2="90"/>
    <line x1="110" y1="102" x2="130" y2="102"/>
    
    <!-- Feedback loop -->
    <path d="M 145 115 Q 170 130 170 150 Q 170 170 45 170 Q 20 170 20 150 Q 20 45 30 45" stroke-dasharray="3,3"/>
  </g>
  
  <!-- Arrow marker for pipeline -->
  <defs>
    <marker id="pipelineArrow" markerWidth="8" markerHeight="8" refX="7" refY="4" orient="auto">
      <path d="M0,0 L0,8 L8,4 z" fill="#6B7280"/>
    </marker>
  </defs>
  
  <!-- Automation indicators -->
  <g fill="#10B981">
    <circle cx="70" cy="40" r="6">
      <animate attributeName="opacity" values="0.3;1;0.3" dur="2s" repeatCount="indefinite"/>
    </circle>
    <circle cx="120" cy="40" r="6">
      <animate attributeName="opacity" values="0.3;1;0.3" dur="2s" repeatCount="indefinite" begin="0.5s"/>
    </circle>
    <circle cx="170" cy="80" r="6">
      <animate attributeName="opacity" values="0.3;1;0.3" dur="2s" repeatCount="indefinite" begin="1s"/>
    </circle>
    
    <!-- Gear icons for automation -->
    <g stroke="#10B981" stroke-width="1" fill="none">
      <circle cx="70" cy="40" r="4"/>
      <path d="M66,40 L74,40 M70,36 L70,44 M67,37 L73,43 M73,37 L67,43"/>
      
      <circle cx="120" cy="40" r="4"/>
      <path d="M116,40 L124,40 M120,36 L120,44 M117,37 L123,43 M123,37 L117,43"/>
      
      <circle cx="170" cy="80" r="4"/>
      <path d="M166,80 L174,80 M170,76 L170,84 M167,77 L173,83 M173,77 L167,83"/>
    </g>
  </g>
  
  <!-- Servers/Infrastructure -->
  <g>
    <!-- Server 1 -->
    <rect x="30" y="130" width="25" height="35" rx="3" fill="#374151" stroke="#1F2937" stroke-width="2"/>
    <rect x="32" y="135" width="21" height="3" fill="#10B981"/>
    <rect x="32" y="140" width="21" height="3" fill="#F59E0B"/>
    <rect x="32" y="145" width="21" height="3" fill="#EF4444"/>
    <circle cx="52" cy="153" r="2" fill="#10B981"/>
    
    <!-- Server 2 -->
    <rect x="65" y="130" width="25" height="35" rx="3" fill="#374151" stroke="#1F2937" stroke-width="2"/>
    <rect x="67" y="135" width="21" height="3" fill="#10B981"/>
    <rect x="67" y="140" width="21" height="3" fill="#F59E0B"/>
    <rect x="67" y="145" width="21" height="3" fill="#EF4444"/>
    <circle cx="87" cy="153" r="2" fill="#10B981"/>
    
    <!-- Server 3 -->
    <rect x="100" y="130" width="25" height="35" rx="3" fill="#374151" stroke="#1F2937" stroke-width="2"/>
    <rect x="102" y="135" width="21" height="3" fill="#10B981"/>
    <rect x="102" y="140" width="21" height="3" fill="#F59E0B"/>
    <rect x="102" y="145" width="21" height="3" fill="#EF4444"/>
    <circle cx="122" cy="153" r="2" fill="#10B981"/>
  </g>
  
  <!-- Cloud connection -->
  <g stroke="#6B7280" stroke-width="1" fill="none" stroke-dasharray="2,2">
    <line x1="42" y1="130" x2="42" y2="115"/>
    <line x1="77" y1="130" x2="95" y2="115"/>
    <line x1="112" y1="130" x2="145" y2="115"/>
  </g>
  
  <!-- Status indicators -->
  <g>
    <circle cx="180" cy="30" r="5" fill="#10B981">
      <animate attributeName="opacity" values="0.5;1;0.5" dur="2s" repeatCount="indefinite"/>
    </circle>
    
    <rect x="150" y="140" width="35" height="20" rx="3" fill="#F3F4F6" stroke="#D1D5DB" stroke-width="1"/>
    <rect x="152" y="145" width="20" height="2" fill="#10B981" rx="1"/>
    <rect x="152" y="149" width="25" height="2" fill="#F59E0B" rx="1"/>
    <rect x="152" y="153" width="18" height="2" fill="#6B7280" rx="1"/>
  </g>
</svg> 