<?xml version="1.0" encoding="UTF-8"?><svg id="Layer_1" xmlns="http://www.w3.org/2000/svg" viewBox="0 0 86.23 21.74"><defs><style>.cls-1,.cls-2{fill-rule:evenodd;}.cls-2{fill:#1677ff;}</style></defs><path class="cls-2" d="M17.75,13.65c3.1,1.05,3.81,1.11,3.81,1.11V3.48c0-1.92-1.54-3.48-3.45-3.48H3.45C1.55,0,0,1.56,0,3.48v14.78c0,1.92,1.55,3.48,3.45,3.48h14.65c1.91,0,3.45-1.56,3.45-3.48v-.14s-5.61-2.36-8.44-3.73c-1.9,2.36-4.35,3.79-6.89,3.79-4.3,0-5.76-3.8-3.73-6.3.44-.54,1.2-1.06,2.37-1.36,1.83-.45,4.75.28,7.49,1.19.49-.91.91-1.92,1.21-2.99H5.15v-.86h4.35v-1.54h-5.26v-.86h5.26v-2.2s0-.37.37-.37h2.12v2.57h5.21v.86h-5.21v1.54h4.25c-.41,1.68-1.02,3.23-1.8,4.58,1.29.47,2.45.92,3.31,1.21"/><path class="cls-2" d="M5.24,11.81c-.54.05-1.55.29-2.1.79-1.66,1.46-.67,4.12,2.69,4.12,1.95,0,3.9-1.26,5.43-3.27-2.18-1.07-4.02-1.84-6.01-1.64"/><path class="cls-2" d="M46.81,3.18c0,1.12.82,1.88,1.97,1.88s1.97-.76,1.97-1.88-.82-1.88-1.97-1.88-1.97.78-1.97,1.88"/><rect x="41.32" y="1.78" width="3.42" height="15.79"/><path class="cls-1" d="M35.33,2.32h-4.59l-5.13,15.25h3.16l.87-2.99h5.43l.82,2.99h4.05l-4.61-15.25ZM30.35,12.1l2.03-7.03h.09l1.93,7.03h-4.05Z"/><rect x="47.07" y="5.97" width="3.42" height="11.6"/><polygon class="cls-1" points="86.21 6 86.23 5.97 83.01 5.97 80.97 13.03 80.87 13.03 78.53 5.97 74.7 5.97 79.31 17.61 77.38 21.16 77.38 21.25 80.39 21.25 86.21 6"/><path class="cls-1" d="M58.99,5.74c-1.25,0-2.23.48-3.33,1.38v-1.15h-3.42v15.27h3.42v-3.79c.65.17,1.25.26,1.99.26,3.05,0,5.8-2.25,5.8-6.25,0-3.59-1.99-5.73-4.46-5.73M56.83,15.58c-.39,0-.76-.04-1.17-.17v-6.27c.71-.5,1.3-.74,2.03-.74,1.28,0,2.29,1.02,2.29,3.18,0,2.77-1.49,4-3.16,4"/><path class="cls-1" d="M74.03,14.67v-4.85c0-2.64-1.56-4.09-4.3-4.09-1.75,0-2.96.3-5.17.97l.61,2.66c2.01-.91,2.9-1.3,3.83-1.3,1.12,0,1.62.8,1.62,2.03v.09c-3.92.74-5.13,1.15-5.88,1.9-.56.56-.8,1.36-.8,2.29,0,2.23,1.73,3.42,3.35,3.42,1.21,0,2.18-.45,3.5-1.45l.24,1.21h3.42l-.41-2.9ZM70.61,14.76c-.91.5-1.43.69-2.03.69-.82,0-1.34-.54-1.34-1.41,0-.32.06-.65.32-.91.41-.41,1.21-.71,3.05-1.15v2.77Z"/></svg>