<svg xmlns="http://www.w3.org/2000/svg" width="190.4" height="56.15" viewBox="0 0 190.4 56.15"><title>Alipay Chinese logo - Brandlogos.net</title><path d="M464.1,483.92H425.82a9,9,0,0,0-9,9v38.16a9,9,0,0,0,9,9H464.1a9,9,0,0,0,9-9V492.92A9,9,0,0,0,464.1,483.92Z" transform="translate(-416.8 -483.92)" style="fill:#1677ff"/><path d="M463.16,519.18c-2.25-.75-5.28-1.9-8.65-3.12a45.22,45.22,0,0,0,4.7-11.84h-11.1v-4h13.6V498h-13.6v-6.65h-5.55a.94.94,0,0,0-1,1V498H427.84v2.23H441.6v4H430.24v2.23h22a39.07,39.07,0,0,1-3.17,7.73c-7.15-2.35-14.77-4.26-19.56-3.08a11.28,11.28,0,0,0-6.2,3.5c-5.32,6.45-1.5,16.26,9.73,16.26,6.64,0,13-3.69,18-9.78,7.4,3.55,22,9.64,22,9.64V522S471.27,521.89,463.16,519.18ZM432,527.11c-8.76,0-11.35-6.88-7-10.65a11.07,11.07,0,0,1,5.49-2c5.2-.51,10,1.47,15.71,4.23C442.2,523.86,437.11,527.11,432,527.11Z" transform="translate(-416.8 -483.92)" style="fill:#fff"/><path d="M577.21,497.94h21.45v4.25h7.66v-5s0,0,0,0a2,2,0,0,0-2-2.06h-12.4v-4h-8v4H569.55v7.13h7.66Z" transform="translate(-416.8 -483.92)" style="fill:#3e3a39"/><polygon points="114.01 7.55 106.16 26.12 112.18 26.12 112.18 48.22 118.77 48.22 118.77 18.91 116.39 18.91 121.35 7.55 114.01 7.55" style="fill:#3e3a39"/><path d="M607.2,531.13,604.79,523a1.25,1.25,0,0,0-1.19-.89h-6.38l1.85,6.24h-7.5V516.26H606.3v-2.88H591.58v-5.69H606.3v-2.88H569.55v2.88h14.72v5.69H569.55v2.88h14.72v12.09H569.55v2.88H607.2l0-.1Z" transform="translate(-416.8 -483.92)" style="fill:#3e3a39"/><path d="M547.66,506.7a1.52,1.52,0,0,0-1.35-.87h-5.7l4.44,14h6.75Z" transform="translate(-416.8 -483.92)" style="fill:#3e3a39"/><path d="M562.1,491.81h-6.85V499H538.37v2.88h16.87v25.72a1.19,1.19,0,0,1-1.1,1.08h-3.48v3h8.87a2.7,2.7,0,0,0,2.56-2.67V501.84h2.78V499H562.1Z" transform="translate(-416.8 -483.92)" style="fill:#3e3a39"/><path d="M519.37,504.84H506.22v-4.71h15.25v-2.94H506.22v-6h-6.8a1.37,1.37,0,0,0-1.35,1.39h0v4.58H482.93v2.94h15.14v4.71H485.3v2.93h25.46s-1.41,5.51-8.39,11.43c-6.26-4.74-8.35-8.51-8.35-8.51h-6.83a38,38,0,0,0,10.92,11.67,59.27,59.27,0,0,1-15.43,6.9v3.52a68.92,68.92,0,0,0,19.76-7.62,70.74,70.74,0,0,0,19.49,7.62v-3.33a81.23,81.23,0,0,1-15.09-7.19C512.46,518.08,517.4,512.42,519.37,504.84Z" transform="translate(-416.8 -483.92)" style="fill:#3e3a39"/></svg>