<?xml version="1.0" encoding="UTF-8"?>
<svg id="_图层_1" data-name="图层 1" xmlns="http://www.w3.org/2000/svg" viewBox="0 0 295.93 37.28">
  <defs>
    <style>
      .cls-1 {
        fill: #ff6a00;
      }
    </style>
  </defs>
  <g>
    <rect class="cls-1" x="19.94" y="16.3" width="19.92" height="4.49"/>
    <g>
      <path class="cls-1" d="M49.84,0h-13.18l3.18,4.5,9.61,2.94c1.78,.56,2.91,2.21,2.9,3.99,0,0,0,0,0,.01v14.39s0,0,0,.01c.01,1.77-1.12,3.43-2.9,3.99l-9.61,2.94-3.18,4.5h13.18c5.5,0,9.96-4.46,9.96-9.96V9.96c0-5.5-4.46-9.96-9.96-9.96Z"/>
      <path class="cls-1" d="M9.96,0h13.18s-3.18,4.5-3.18,4.5l-9.61,2.94c-1.78,.56-2.91,2.21-2.9,3.99,0,0,0,0,0,.01v14.39s0,0,0,.01c-.01,1.77,1.12,3.43,2.9,3.99l9.61,2.94,3.18,4.5H9.96c-5.5,0-9.96-4.46-9.96-9.96V9.96C0,4.46,4.46,0,9.96,0Z"/>
    </g>
  </g>
  <path class="cls-1" d="M221.19,26.03c0,3.22-2.65,5.84-5.9,5.84s-5.9-2.62-5.9-5.84V11.78c0-3.22,2.65-5.84,5.9-5.84s5.9,2.62,5.9,5.84v.17h4.52v-.17c0-5.68-4.67-10.3-10.42-10.3s-10.42,4.62-10.42,10.3v14.24c0,5.68,4.67,10.3,10.42,10.3s10.41-4.62,10.42-10.29v-.19s-4.52,0-4.52,0v.19Z"/>
  <path class="cls-1" d="M244.67,10.69c-4.79,0-8.72,3.71-8.96,8.45v8.73c.23,4.74,4.17,8.45,8.96,8.45s8.72-3.72,8.96-8.46v-8.73c-.23-4.73-4.17-8.44-8.96-8.44Zm4.43,16.67c-.04,2.49-1.99,4.44-4.43,4.44s-4.39-1.95-4.43-4.43v-7.72c0-2.45,1.99-4.43,4.43-4.43s4.43,1.99,4.43,4.43v7.71Z"/>
  <rect class="cls-1" x="227.95" y="1.48" width="4.5" height="34.28"/>
  <rect class="cls-1" x="103.81" y="10.69" width="4.5" height="25.07"/>
  <rect class="cls-1" x="94.81" y="1.48" width="4.5" height="34.28"/>
  <path class="cls-1" d="M83.45,1.48h-5.54l-9.1,34.24v.04s4.49,0,4.49,0l2.42-9.1,9.95,.03,2.4,9.04v.03h4.5L83.45,1.5v-.03Zm1.01,20.72h-7.57l3.79-14.24,3.79,14.24Z"/>
  <path class="cls-1" d="M270.27,27.83c0,2.45-1.99,4.44-4.44,4.44s-4.44-1.99-4.44-4.44V10.69h-4.51V28.57c0,4.28,3.48,7.75,7.75,7.75,.79,0,1.56-.12,2.31-.35,.44-.13,.85-.3,1.24-.52,.69-.36,1.32-.81,1.87-1.35l.19-.19v1.84h4.54V10.69h-4.52V27.83Z"/>
  <rect class="cls-1" x="103.81" y="1.48" width="4.5" height="4.51"/>
  <path class="cls-1" d="M122.93,10.66c-2.04,0-3.96,.79-5.42,2.22l-.19,.19V1.48h-4.51V35.76h4.51v-1.84l.19,.19c1.46,1.43,3.39,2.22,5.42,2.22,4.28,0,7.76-3.48,7.76-7.76v-10.15c0-4.28-3.48-7.76-7.76-7.76Zm3.31,8.58v8.5c0,2.46-2,4.45-4.45,4.45s-4.45-2-4.45-4.45v-8.5c0-2.45,2-4.45,4.45-4.45s4.45,2,4.45,4.45Z"/>
  <path class="cls-1" d="M164.89,10.66c-2.04,0-3.96,.79-5.42,2.22l-.19,.19V1.48h-4.51V35.76h4.51v-1.84l.19,.19c1.46,1.43,3.38,2.22,5.42,2.22,4.28,0,7.76-3.48,7.76-7.76v-10.15c0-4.28-3.48-7.76-7.76-7.76Zm3.31,8.58v8.5c0,2.46-2,4.45-4.45,4.45s-4.45-2-4.45-4.45v-8.5c0-2.45,2-4.45,4.45-4.45s4.45,2,4.45,4.45Z"/>
  <path class="cls-1" d="M291.42,1.48V13.07l-.19-.19c-1.46-1.43-3.39-2.22-5.42-2.22-4.28,0-7.76,3.48-7.76,7.76v10.15s0,.03,0,.03c0,4.26,3.48,7.73,7.76,7.73,2.04,0,3.96-.79,5.42-2.22l.19-.19v1.84h4.51V1.48h-4.51Zm-.02,17.76v8.5c0,2.46-2,4.45-4.45,4.45s-4.45-2-4.45-4.45v-8.5c0-2.45,2-4.45,4.45-4.45s4.45,2,4.45,4.45Z"/>
  <path class="cls-1" d="M151.53,19.17c-.01-.27-.04-.56-.09-.88l-.02-.13c-.23-1.36-.75-2.62-1.54-3.75-1.6-2.23-4.03-3.59-6.69-3.73-.07,0-.36-.02-.52-.02-2.1,0-4.14,.73-5.75,2.07-1.6,1.33-2.7,3.2-3.09,5.26v.04s4.4,0,4.4,0v-.03c.41-2.08,2.24-3.58,4.35-3.58,1.15,0,2.24,.44,3.08,1.25,.83,.8,1.31,1.87,1.36,3.02v2.1s-6.39,0-6.39,0c-4.28,0-7.75,3.48-7.75,7.75,0,3.6,2.47,6.63,5.8,7.49,.04,.01,.08,.02,.11,.03,.14,.03,.28,.07,.43,.09,.17,.03,.35,.06,.54,.08,.04,0,.07,0,.11,.01,.37,.04,.76,.06,1.17,.06,1.07,0,2.03-.15,2.71-.39,1.14-.36,2.2-.99,3.08-1.85l.19-.19v1.84h4.51v-3h0v-13.57Zm-10.06,5.04h5.49v3.17c-.01,2.41-1.73,4.48-4.09,4.92-.35,.08-.68,.12-1,.12-.79,0-1.55-.22-2.28-.64-.21-.11-.4-.23-.58-.37-.27-.21-.5-.44-.7-.69l-.05-.06c-.54-.71-.83-1.55-.83-2.42,0-2.22,1.81-4.02,4.03-4.02Z"/>
  <path class="cls-1" d="M193.54,19.19c-.01-.27-.04-.56-.09-.88l-.02-.13c-.23-1.36-.75-2.62-1.54-3.75-1.6-2.23-4.03-3.59-6.69-3.73-.07,0-.36-.02-.52-.02-2.1,0-4.14,.73-5.75,2.07-1.6,1.33-2.7,3.2-3.09,5.26v.04s4.4,0,4.4,0v-.03c.41-2.08,2.24-3.58,4.35-3.58,1.15,0,2.24,.44,3.08,1.25,.83,.8,1.31,1.87,1.36,3.02v2.1s-6.39,0-6.39,0c-4.28,0-7.75,3.48-7.75,7.75,0,3.6,2.47,6.63,5.8,7.49,.04,.01,.08,.02,.11,.03,.14,.03,.28,.07,.43,.09,.17,.03,.35,.06,.54,.08,.04,0,.07,0,.11,.01,.37,.04,.76,.06,1.17,.06,1.07,0,2.03-.15,2.71-.39,1.14-.36,2.2-.99,3.08-1.85l.19-.19v1.84h4.51v-3h0v-13.57Zm-10.06,5.04h5.49v3.17c-.01,2.41-1.73,4.48-4.09,4.92-.35,.08-.68,.12-1,.12-.79,0-1.55-.22-2.28-.64-.21-.11-.4-.23-.58-.37-.27-.21-.5-.44-.7-.69l-.05-.06c-.54-.71-.83-1.55-.83-2.42,0-2.22,1.81-4.02,4.03-4.02Z"/>
</svg>