<?xml version="1.0" encoding="UTF-8"?>
<svg id="_图层_1" data-name="图层 1" xmlns="http://www.w3.org/2000/svg" viewBox="0 0 227.93 50.32">
  <defs>
    <style>
      .cls-1 {
        fill: #ff6a00;
      }
    </style>
  </defs>
  <g>
    <rect class="cls-1" x="26.91" y="22" width="26.89" height="6.06"/>
    <path class="cls-1" d="M67.27,0h-17.79l4.29,6.08,12.97,3.97c2.4,.76,3.93,2.99,3.92,5.38,0,0,0,.01,0,.02v19.43s0,0,0,.02c.02,2.4-1.51,4.62-3.92,5.38l-12.97,3.97-4.29,6.08h17.79c7.42,0,13.44-6.02,13.44-13.44V13.44c0-7.42-6.02-13.44-13.44-13.44Z"/>
    <path class="cls-1" d="M13.44,0H31.23s-4.29,6.08-4.29,6.08l-12.97,3.97c-2.4,.76-3.93,2.99-3.92,5.38,0,0,0,.01,0,.02v19.43s0,0,0,.02c-.02,2.4,1.51,4.62,3.92,5.38l12.97,3.97,4.29,6.08H13.44c-7.42,0-13.44-6.02-13.44-13.44V13.44C0,6.02,6.02,0,13.44,0Z"/>
  </g>
  <path class="cls-1" d="M125.12,12.05h-13.13v26.82h13.13V12.05Zm-5.2,21.63h-2.73V17.25h2.73v16.43Z"/>
  <path class="cls-1" d="M92.83,48.99h5.2V6.53h5.33l-3.21,14.18v5.2h3.21v11.33c-.03,.75-.64,1.34-1.4,1.34h-1.2v5.2h2.6c2.87,0,5.2-2.33,5.2-5.2V20.71h-3.21l3.21-14.18V1.34h-15.73V48.99Z"/>
  <path class="cls-1" d="M110.69,6.53h17.84V39.5c0,2.37-1.92,4.3-4.3,4.3h-3.96v5.19h5.32c4.48,0,8.12-3.63,8.12-8.12V6.53h1.89V1.34h-24.91V6.53Z"/>
  <g>
    <rect class="cls-1" x="189.06" y="1.79" width="36.95" height="5.2"/>
    <path class="cls-1" d="M227.93,25.91v-5.2h-40.79v5.2h10.3l-8.11,17.88h0v5.2h34.79c1.44,0,2.6-1.16,2.6-2.6,0-.4-.11-.78-.26-1.12l-4.4-9.64h-5.71l3.74,8.16h-25.04l8.11-17.88h24.77Z"/>
  </g>
  <path class="cls-1" d="M163.98,43.79v-5.51h16.5v-5.2h-16.5v-5.12h15.88V1.34h-36.95V27.96h15.88v5.12h-16.5v5.2h16.5v5.51h-17.79v5.2h40.79v-5.2h-17.79Zm0-21.03v-5.51h10.68v5.51h-10.68Zm10.68-16.23v5.51h-10.68V6.53h10.68Zm-15.88,0v5.51h-10.68V6.53h10.68Zm-10.68,16.23v-5.51h10.68v5.51h-10.68Z"/>
</svg>