<svg version="1.1" id="Layer_1" xmlns="http://www.w3.org/2000/svg" xmlns:xlink="http://www.w3.org/1999/xlink" x="0px" y="0px" viewBox="0 0 359.4 90" style="enable-background:new 0 0 359.4 90;" xml:space="preserve">
 <style type="text/css">
  .st0{fill:#FFFFFF;}
	.st1{fill:url(#XMLID_2_);}
	.st2{fill:url(#XMLID_3_);}
	.st3{fill:#919191;}
	.st4{fill:#168743;}
	.st5{fill:#4C4C4C;}
 </style>
 <g id="全彩标志">
  <g>
   <g>
    <path id="XMLID_436_" class="st0" d="M0,33.7c0,10.1,5.4,19.3,13.8,25.5c0.7,0.5,1.1,1.3,1.1,2.2c0,0.3-0.1,0.6-0.1,0.9
				c-0.7,2.5-1.7,6.6-1.8,6.8c-0.1,0.3-0.2,0.7-0.2,1c0,0.7,0.6,1.3,1.3,1.3c0.3,0,0.5-0.1,0.8-0.3l8.7-5.1c0.7-0.4,1.4-0.6,2.1-0.6
				c0.4,0,0.8,0.1,1.2,0.2c4.1,1.2,8.5,1.8,13,1.8c22,0,39.8-15.1,39.8-33.7C79.7,15.1,61.8,0,39.8,0C17.8,0,0,15.1,0,33.7">
    </path>
    <linearGradient id="XMLID_2_" gradientUnits="userSpaceOnUse" x1="39.8391" y1="71.2971" x2="39.8391" y2="-9.094947e-13">
     <stop offset="6.019631e-02" style="stop-color:#05CD66">
     </stop>
     <stop offset="0.2202" style="stop-color:#0ED169">
     </stop>
     <stop offset="0.4805" style="stop-color:#26DB6F">
     </stop>
     <stop offset="0.8069" style="stop-color:#4DEB7A">
     </stop>
     <stop offset="0.9517" style="stop-color:#61F380">
     </stop>
    </linearGradient>
    <path id="XMLID_435_" class="st1" d="M0,33.7c0,10.1,5.4,19.3,13.8,25.5c0.7,0.5,1.1,1.3,1.1,2.2c0,0.3-0.1,0.6-0.1,0.9
				c-0.7,2.5-1.7,6.6-1.8,6.8c-0.1,0.3-0.2,0.7-0.2,1c0,0.7,0.6,1.3,1.3,1.3c0.3,0,0.5-0.1,0.8-0.3l8.7-5.1c0.7-0.4,1.4-0.6,2.1-0.6
				c0.4,0,0.8,0.1,1.2,0.2c4.1,1.2,8.5,1.8,13,1.8c22,0,39.8-15.1,39.8-33.7C79.7,15.1,61.8,0,39.8,0C17.8,0,0,15.1,0,33.7">
    </path>
    <linearGradient id="XMLID_3_" gradientUnits="userSpaceOnUse" x1="76.8231" y1="90" x2="76.8231" y2="30.6298">
     <stop offset="8.099416e-02" style="stop-color:#D9D9D9">
     </stop>
     <stop offset="1" style="stop-color:#F0F0F0">
     </stop>
    </linearGradient>
    <path id="XMLID_434_" class="st2" d="M43.6,58.7c0,15.5,14.9,28,33.2,28c3.8,0,7.4-0.5,10.8-1.5c0.3-0.1,0.6-0.1,1-0.1
				c0.6,0,1.2,0.2,1.8,0.5l7.3,4.3c0.2,0.1,0.4,0.2,0.6,0.2c0.6,0,1.1-0.5,1.1-1.1c0-0.3-0.1-0.6-0.2-0.8c0-0.2-0.9-3.5-1.5-5.7
				c-0.1-0.2-0.1-0.5-0.1-0.7c0-0.8,0.4-1.4,0.9-1.8c7-5.1,11.5-12.7,11.5-21.2c0-15.5-14.9-28-33.2-28
				C58.5,30.6,43.6,43.2,43.6,58.7">
    </path>
    <g>
     <path id="XMLID_433_" class="st3" d="M83.8,50.1c0,2.5,2,4.5,4.4,4.5c2.5,0,4.4-2,4.4-4.5c0-2.5-2-4.5-4.4-4.5
					C85.8,45.6,83.8,47.6,83.8,50.1">
     </path>
     <path id="XMLID_432_" class="st3" d="M61.6,50.1c0,2.5,2,4.5,4.4,4.5c2.5,0,4.4-2,4.4-4.5c0-2.5-2-4.5-4.4-4.5
					C63.6,45.6,61.6,47.6,61.6,50.1">
     </path>
    </g>
    <g>
     <path id="XMLID_431_" class="st4" d="M31.8,22.8c0,3-2.4,5.4-5.3,5.4c-2.9,0-5.3-2.4-5.3-5.4c0-3,2.4-5.4,5.3-5.4
					C29.5,17.4,31.8,19.9,31.8,22.8">
     </path>
     <path id="XMLID_421_" class="st4" d="M58.5,22.8c0,3-2.4,5.4-5.3,5.4c-2.9,0-5.3-2.4-5.3-5.4c0-3,2.4-5.4,5.3-5.4
					C56.1,17.4,58.5,19.9,58.5,22.8">
     </path>
    </g>
   </g>
  </g>
  <g>
   <path class="st5" d="M147.3,69.2L135,20.7h6.6l5.8,24.5c1.4,6.1,2.7,12.1,3.6,16.8h0.1c0.8-4.8,2.3-10.6,4-16.8l6.5-24.5h6.5
			l5.9,24.6c1.4,5.8,2.7,11.5,3.4,16.6h0.1c1-5.3,2.4-10.7,3.9-16.8l6.4-24.5h6.4l-13.7,48.5h-6.5L167.8,44
			c-1.5-6.3-2.5-11-3.2-15.9h-0.1c-0.8,4.9-1.9,9.6-3.7,15.8l-6.9,25.3H147.3z">
   </path>
   <path class="st5" d="M199.7,52.9c0.1,8.5,5.5,12,11.9,12c4.5,0,7.3-0.8,9.6-1.8l1.2,4.5c-2.2,1-6.1,2.2-11.7,2.2
			c-10.6,0-17.1-7.1-17.1-17.6c0-10.5,6.3-18.8,16.4-18.8c11.4,0,14.3,10,14.3,16.4c0,1.3-0.1,2.2-0.2,2.9H199.7z M218.2,48.4
			c0.1-4-1.7-10.3-8.7-10.3c-6.5,0-9.2,5.9-9.7,10.3H218.2z">
   </path>
   <path class="st5" d="M266.7,67.6c-2.2,1.2-7,2.4-12.9,2.4c-13.7,0-23.9-8.6-23.9-24.5c0-15.2,10.3-25.4,25.3-25.4
			c6,0,9.7,1.2,11.3,2l-1.4,5.2c-2.3-1.2-5.7-2-9.7-2c-11.4,0-18.9,7.3-18.9,19.9c0,11.9,6.8,19.4,18.6,19.4c3.9,0,7.8-0.8,10.3-2
			L266.7,67.6z">
   </path>
   <path class="st5" d="M272.7,20.8h6.3v19h0.1c1-1.8,2.6-3.5,4.5-4.5c1.9-1.2,4.1-1.8,6.5-1.8c4.7,0,12.2,2.9,12.2,14.9v20.7H296
			V49.1c0-5.6-2.1-10.3-8.1-10.3c-4.1,0-7.3,2.9-8.5,6.3c-0.4,0.9-0.4,1.8-0.4,3v21h-6.3V20.8z">
   </path>
   <path class="st5" d="M334.9,60.9c0,3,0.1,6,0.5,8.3h-5.7l-0.6-4.4h-0.2c-1.9,2.7-5.7,5.2-10.6,5.2c-7.1,0-10.6-5-10.6-10
			c0-8.4,7.5-13,20.9-12.9v-0.7c0-2.9-0.8-8.1-7.9-8.1c-3.3,0-6.7,0.9-9.1,2.6l-1.2-4.4c2.7-1.7,6.9-2.9,11.3-2.9
			c10.7,0,13.3,7.3,13.3,14.2V60.9z M328.7,51.4c-6.9-0.1-14.7,1.1-14.7,7.8c0,4.2,2.7,6,5.9,6c4.6,0,7.6-2.9,8.6-5.8
			c0.2-0.6,0.3-1.4,0.3-2V51.4z">
   </path>
   <path class="st5" d="M350.1,28v6.4h9.1v4.8h-9.1v18.7c0,4.3,1.2,6.8,4.7,6.8c1.7,0,2.7-0.1,3.3-0.3l1.3,4.6c-1.2,0.6-3.8,1-6.2,1
			c-2.9,0-5.3-1-6.8-2.7c-1.7-1.9-2.4-5-2.4-9.1V39.2h-5.4v-4.8h5.4V28H350.1z">
   </path>
  </g>
 </g>
</svg>