<?xml version="1.0" encoding="UTF-8"?><svg id="Layer_1" xmlns="http://www.w3.org/2000/svg" viewBox="0 0 372.63 328.86"><defs><style>.cls-1{fill:#d9ebd7;}.cls-2{fill:#edefef;}.cls-3{fill:#fff;}.cls-4{fill:#eeeeef;}.cls-5{fill:#fffdff;}.cls-6{fill:#00c800;}.cls-7{fill:#eee;}.cls-8{fill:#fcfffd;}.cls-9{fill:#f8fffd;}</style></defs><path class="cls-3" d="M191.55,0h24.08c.02.48.06,1.43.07,1.91-8.01-1.06-16.07-1.68-24.15-1.91Z"/><path class="cls-3" d="M90.49,125.16c.08-2.42.08-4.85.04-7.28,1.21.33,2.41.77,3.44,1.5,2.68,1.89,5.34,3.8,8,5.72"/><path class="cls-3" d="M136.16,204.92c1.4.05,2.8.07,4.19.26-1.31.77-2.61,1.56-3.93,2.33-.13-.86-.22-1.72-.27-2.59Z"/><path class="cls-7" d="M67.87,285.23c.52-.39,1.06-.75,1.63-1.08-.31,1.93-.89,3.79-1.42,5.67-.1-1.52-.52-3.07-.21-4.59Z"/><path class="cls-8" d="M158.21,0h22.42c-6.92.24-13.83.71-20.7,1.54-.56-.52-1.14-1.04-1.71-1.54Z"/><path class="cls-6" d="M105.5,306.87c-1.28.74-2.57,1.46-3.85,2.21-3.73,2.15-7.47,4.3-11.2,6.45-1.64.96-3.29,1.92-4.93,2.88-2.14,1.21-4.26,2.45-6.4,3.66-3.88,2.18-7.66,4.55-11.62,6.61-2.8.65-6-.52-7.27-3.19-1.19-2.18-.48-4.7.16-6.92,1.04-3.75,2.04-7.52,3.05-11.28,1-3.78,2.02-7.55,3.03-11.32.56-2.05,1.13-4.09,1.6-6.15.52-1.88,1.11-3.74,1.42-5.67.32-2.57-.31-5.16-1.47-7.45-.96-1.57-2.22-2.94-3.69-4.04-2.66-1.96-5.3-3.95-7.86-6.03-1.99-1.63-3.94-3.29-5.87-5.01-1.78-1.59-3.55-3.19-5.27-4.85-2.27-2.22-4.49-4.49-6.65-6.83-1.68-1.85-3.36-3.7-4.96-5.62-1.52-1.81-3-3.66-4.44-5.55-2.34-3.04-4.53-6.19-6.67-9.39-.43-.65-.84-1.31-1.25-1.96-2.3-3.64-4.43-7.38-6.4-11.2-1.37-2.71-2.68-5.46-3.93-8.23-.42-1.06-.86-2.12-1.29-3.17-1.58-3.83-2.93-7.75-4.14-11.71-1.09-3.65-2.03-7.34-2.84-11.07-.77-3.81-1.41-7.65-1.87-11.51-1.38-11.38-1.18-22.93.49-34.26.57-3.7,1.24-7.4,2.11-11.04.89-3.81,1.94-7.57,3.19-11.28,1.25-3.88,2.78-7.65,4.32-11.42l.14-.34c1.73-3.77,3.5-7.52,5.5-11.16,4.38-8.02,9.51-15.62,15.28-22.71.67-.82,1.35-1.63,2.01-2.44,2.56-3.04,5.25-5.95,8.03-8.79,1.01-1.04,2.05-2.05,3.09-3.06,2.87-2.83,5.88-5.52,8.95-8.12.9-.75,1.8-1.5,2.72-2.22,7.09-5.72,14.61-10.9,22.47-15.5,3.08-1.8,6.21-3.52,9.38-5.18.72-.37,1.45-.73,2.18-1.09,3.72-1.83,7.48-3.57,11.29-5.18,7.39-3.13,14.96-5.84,22.67-8.08,4.07-1.18,8.18-2.27,12.32-3.17,3.41-.81,6.86-1.48,10.31-2.1,4.17-.79,8.38-1.35,12.59-1.86,6.87-.84,13.79-1.3,20.7-1.54h10.92c8.08.23,16.14.85,24.15,1.91,3.79.5,7.57,1.11,11.33,1.8,3.79.71,7.56,1.52,11.3,2.42,3.82.93,7.62,1.93,11.38,3.09,7.8,2.33,15.44,5.17,22.91,8.41,3.79,1.65,7.49,3.48,11.21,5.3l.3.14c3.73,2,7.45,4.01,11.07,6.21,8.02,4.79,15.63,10.24,22.81,16.2.15.13.45.37.6.49,3.58,3.08,7.13,6.21,10.46,9.58.56.57,1.13,1.15,1.71,1.72,2.71,2.73,5.23,5.63,7.74,8.53-1.48.64-2.96,1.29-4.43,1.96-1.69.75-3.38,1.48-5.06,2.24-3.72,1.64-7.42,3.32-11.13,4.96-3.3,1.47-6.6,2.93-9.88,4.43-.48.19-.95.39-1.42.6-3.81,1.68-7.6,3.4-11.4,5.07-7.6,3.4-15.21,6.76-22.81,10.17-7.54,3.33-15.08,6.69-22.61,10.06-3.79,1.7-7.58,3.37-11.37,5.06-2.36,1.04-4.72,2.11-7.06,3.18-1.47.6-2.91,1.26-4.37,1.9-3.84,1.72-7.69,3.43-11.54,5.14-3.11,1.39-6.22,2.78-9.33,4.18-.64.28-1.28.56-1.91.84-3.81,1.67-7.59,3.39-11.39,5.07-7.61,3.39-15.21,6.76-22.81,10.16-5.81,2.55-11.61,5.17-17.4,7.76-1.72.79-3.5,1.47-5.35,1.85-3.78.64-7.73.16-11.21-1.45-.84-.42-1.66-.89-2.46-1.39-2.92-2.11-5.87-4.19-8.81-6.28-2.4-1.71-4.78-3.43-7.19-5.11-1.42-1.02-2.85-2.05-4.29-3.06-3.67-2.64-7.36-5.27-11.05-7.89l-.27-.18c-2.66-1.92-5.32-3.83-8-5.72-1.04-.73-2.24-1.17-3.44-1.5-4.02-.22-7.52,3.63-6.61,7.62,3.22,7.53,6.79,14.91,10.11,22.39,1.78,3.89,3.54,7.78,5.33,11.67.69,1.53,1.38,3.07,2.07,4.6,1.01,2.2,2.04,4.4,3.03,6.62,1.72,3.74,3.4,7.5,5.13,11.24,1.1,2.4,2.2,4.81,3.31,7.21.63,1.41,1.26,2.83,1.91,4.24,2.03,3.95,3.27,8.35,5.99,11.9,1.09,1.02,2.28,1.93,3.58,2.68,3.79,1.87,8.43,1.64,12.06-.53,1.31-.77,2.62-1.55,3.93-2.33,2.4-1.35,4.77-2.74,7.16-4.1,7.58-4.39,15.17-8.77,22.76-13.16,3.27-1.87,6.53-3.76,9.79-5.67.53-.32,1.09-.63,1.63-.93,3.79-2.16,7.56-4.35,11.33-6.53,2.15-1.23,4.31-2.46,6.44-3.72,1.66-.96,3.33-1.92,5-2.88,3.77-2.18,7.53-4.38,11.32-6.53,1.15-.65,2.3-1.33,3.44-2,2.66-1.55,5.34-3.07,7.99-4.64,7.58-4.37,15.19-8.72,22.75-13.13,2.88-1.68,5.78-3.32,8.66-5,.86-.49,1.72-1,2.58-1.49,3.78-2.19,7.58-4.36,11.36-6.57,1.99-1.12,3.95-2.28,5.92-3.43,1.8-1.03,3.6-2.04,5.39-3.08,7.66-4.43,15.31-8.86,22.98-13.28,3.58-2.09,7.19-4.14,10.76-6.24.28-.16.57-.32.86-.48,3.74-2.14,7.46-4.32,11.21-6.47,2.66-1.52,5.3-3.09,7.96-4.62,1.08-.61,2.14-1.23,3.22-1.84,3.6-2,7.06-4.24,10.77-6.05,1.29,2.67,2.96,5.14,4.35,7.77,2.05,3.79,3.97,7.66,5.67,11.62.48,1.13.94,2.26,1.41,3.4,1.06,2.63,2.05,5.29,2.94,7.99,1.2,3.62,2.22,7.29,3.12,11,.89,3.76,1.59,7.57,2.17,11.39.53,3.76.92,7.54,1.14,11.34.21,3.81.26,7.63.16,11.44-.14,3.79-.4,7.58-.84,11.35-.45,3.78-1.07,7.53-1.83,11.26-.8,3.77-1.74,7.5-2.83,11.2-2.39,7.93-5.51,15.63-9.27,23.01-4.07,8-8.92,15.59-14.38,22.72-.97,1.25-1.96,2.5-2.95,3.73-2.07,2.51-4.19,4.98-6.4,7.38-1.56,1.67-3.13,3.32-4.74,4.94-2.37,2.33-4.78,4.61-7.27,6.8-1.29,1.15-2.61,2.28-3.94,3.39-3.25,2.73-6.61,5.33-10.06,7.8-.51.36-1.02.73-1.53,1.09-3.73,2.63-7.54,5.14-11.46,7.48-1.52.91-3.06,1.79-4.6,2.66-2.19,1.23-4.4,2.45-6.65,3.58-3.75,1.91-7.55,3.72-11.41,5.39-1.8.79-3.62,1.54-5.43,2.28-2.05.81-4.11,1.58-6.18,2.34-3.65,1.35-7.36,2.57-11.09,3.71-3.9,1.15-7.83,2.22-11.79,3.17-3.36.83-6.75,1.5-10.13,2.22-.19.03-.57.09-.76.11-3.78.68-7.57,1.29-11.38,1.79-3.78.49-7.56.9-11.36,1.2-3.8.27-7.61.51-11.41.61-3.79.11-7.58.13-11.38.05-3.79-.09-7.59-.27-11.38-.54-3.79-.27-7.58-.65-11.36-1.12-3.41-.42-6.8-.96-10.18-1.51-1.22-.21-2.44-.46-3.66-.64-2.94-.6-5.87-1.19-8.79-1.88-3.86-.89-7.68-1.95-11.5-2.99-3.74-1-7.76-.68-11.35.73"/><path class="cls-4" d="M215.62,0h11.48c-.02,1.23-.05,2.47-.07,3.71-3.76-.69-7.54-1.3-11.33-1.8-.02-.48-.06-1.43-.07-1.91Z"/><path class="cls-2" d="M273.22,125.24c1.75-.29,3.52.01,5.26.16-1.97,1.15-3.93,2.3-5.92,3.43.23-1.14-.39-2.81.65-3.59Z"/><path class="cls-1" d="M215.94,159.51c1.09.06,2.18.09,3.28.14-1.14.68-2.29,1.35-3.44,2,.06-.72.11-1.43.16-2.14Z"/><path class="cls-5" d="M33.73,244.32c1.6,1.92,3.28,3.77,4.96,5.62-1.55.14-3.21.73-4.69.03-.74-1.75-.22-3.79-.27-5.64Z"/><path class="cls-9" d="M85.53,318.41c1.64-.96,3.28-1.92,4.93-2.88-.06.99-.11,1.99-.17,2.98-1.59-.02-3.17.03-4.76-.1Z"/></svg>