<svg version="1.1" id="Layer_1" xmlns="http://www.w3.org/2000/svg" xmlns:xlink="http://www.w3.org/1999/xlink" x="0px" y="0px" viewBox="0 0 285.1 90" style="enable-background:new 0 0 285.1 90;" xml:space="preserve">
 <style type="text/css">
  .st0{fill:#4C4C4C;}
	.st1{fill:#FFFFFF;}
	.st2{fill:url(#XMLID_2_);}
	.st3{fill:url(#XMLID_3_);}
	.st4{fill:#919191;}
	.st5{fill:#168743;}
 </style>
 <g id="全彩标志">
  <g id="XMLID_640_">
   <path id="XMLID_647_" class="st0" d="M230.6,10.8l5.2,2.1c-1.6,5.6-3.2,10.2-5.2,15.1v51.4h-5.5V39c-2,3.2-3.7,5.9-6.1,9.1
			l-4.2-3.9C221.8,35.1,227.6,23.5,230.6,10.8z">
   </path>
   <path id="XMLID_646_" class="st0" d="M260.1,10.7c1.1,2,3.7,6.8,5.2,9.8h19.9v5.3H236v-5.3h22.8c-1.4-2.6-2.8-5.2-3.8-6.9
			L260.1,10.7z">
   </path>
   <rect id="XMLID_645_" x="241.9" y="32.2" class="st0" width="37.6" height="4.8">
   </rect>
   <rect id="XMLID_644_" x="241.9" y="43.2" class="st0" width="37.6" height="4.9">
   </rect>
   <path id="XMLID_641_" class="st0" d="M241.9,54.4v23h5.7h26.3h5.7v-23H241.9z M273.9,72.4h-26.3v-13h26.3V72.4z">
   </path>
  </g>
  <g id="XMLID_631_">
   <path id="XMLID_639_" class="st0" d="M147.5,28.2l4.5,2.5c-1.4,3-2.3,4.9-4.3,8.2l0,40.4h-5.1l0-32.7c-2.1,2.9-3.4,4.5-5.5,6.8
			l-4-3.8C138.3,44.3,144,35.7,147.5,28.2z">
   </path>
   <path id="XMLID_638_" class="st0" d="M146.6,10.9l4.7,2.7c-3.4,6.1-9.3,14.1-14.4,19.9l-4-3.7C137.9,24.3,143.5,16.7,146.6,10.9z">
   </path>
   <rect id="XMLID_637_" x="154" y="37.4" class="st0" width="23.9" height="4.9">
   </rect>
   <polygon id="XMLID_636_" class="st0" points="159.9,16.1 159.9,27.9 164.6,27.9 164.6,10.7 169.6,10.7 169.6,27.9 174.3,27.9 
			174.3,16.1 179.2,16.1 179.2,32.5 155.2,32.5 155.2,16.1 		">
   </polygon>
   <path id="XMLID_635_" class="st0" d="M182.1,56.9c0,0-3.9,3.7-5,4.7v-14h-20.9l0,10.8c0,7.8-1.7,11.2-5,14.8l3.8,3.5
			c5.1-5.5,6.2-9.9,6.2-17.2v-6.9l11.1,0c0,0,0.2,12-0.2,13.9l3.3,3.1c0,0,8-7.2,10.4-9.3L182.1,56.9z">
   </path>
   <path id="XMLID_632_" class="st0" d="M196.5,57.8c3.6-7.7,5.6-18.3,5.8-32.2l3.4,0v-5.2l-14.8,0c0.2-2.9,0.1-6.1,0.1-8h-4.8
			c0.1,7.4-0.8,14.4-1.8,19.3c-1.2,5.5-3.1,10.8-5.2,14l3.7,3.3c1.1-1.7,2-3.4,3.1-5.8c1.9,7,2.8,8.9,5.1,14.2
			c-3.4,7-7.6,13.2-11.5,17.9l4,3.6c2-2.4,6.3-8.3,10.4-16.1c1.8,3.4,5.6,9.3,10,16l4-4.1C204.4,70.3,199.5,63.4,196.5,57.8z
			 M193.6,51.9c-2.5-6.1-3.7-9.6-5.2-16.2c0.8-2.6,1.5-6.7,1.8-10.1h7.6C197.4,36.9,196,45.6,193.6,51.9z">
   </path>
  </g>
  <g id="XMLID_621_">
   <path id="XMLID_630_" class="st1" d="M0,33.7c0,10.1,5.4,19.3,13.8,25.5c0.7,0.5,1.1,1.3,1.1,2.2c0,0.3-0.1,0.6-0.1,0.9
			C14.1,64.7,13,68.8,13,69c-0.1,0.3-0.2,0.7-0.2,1c0,0.7,0.6,1.3,1.3,1.3c0.3,0,0.5-0.1,0.8-0.3l8.7-5.1c0.7-0.4,1.4-0.6,2.1-0.6
			c0.4,0,0.8,0.1,1.2,0.2c4.1,1.2,8.5,1.8,13,1.8c22,0,39.9-15.1,39.9-33.7C79.7,15.1,61.9,0,39.9,0C17.8,0,0,15.1,0,33.7">
   </path>
   <linearGradient id="XMLID_2_" gradientUnits="userSpaceOnUse" x1="39.8685" y1="71.2971" x2="39.8685" y2="-9.094947e-13">
    <stop offset="6.019631e-02" style="stop-color:#05CD66">
    </stop>
    <stop offset="0.2202" style="stop-color:#0ED169">
    </stop>
    <stop offset="0.4805" style="stop-color:#26DB6F">
    </stop>
    <stop offset="0.8069" style="stop-color:#4DEB7A">
    </stop>
    <stop offset="0.9517" style="stop-color:#61F380">
    </stop>
   </linearGradient>
   <path id="XMLID_629_" class="st2" d="M0,33.7c0,10.1,5.4,19.3,13.8,25.5c0.7,0.5,1.1,1.3,1.1,2.2c0,0.3-0.1,0.6-0.1,0.9
			C14.1,64.7,13,68.8,13,69c-0.1,0.3-0.2,0.7-0.2,1c0,0.7,0.6,1.3,1.3,1.3c0.3,0,0.5-0.1,0.8-0.3l8.7-5.1c0.7-0.4,1.4-0.6,2.1-0.6
			c0.4,0,0.8,0.1,1.2,0.2c4.1,1.2,8.5,1.8,13,1.8c22,0,39.9-15.1,39.9-33.7C79.7,15.1,61.9,0,39.9,0C17.9,0,0,15.1,0,33.7">
   </path>
   <linearGradient id="XMLID_3_" gradientUnits="userSpaceOnUse" x1="76.8797" y1="90" x2="76.8797" y2="30.6298">
    <stop offset="8.099416e-02" style="stop-color:#D9D9D9">
    </stop>
    <stop offset="1" style="stop-color:#F0F0F0">
    </stop>
   </linearGradient>
   <path id="XMLID_628_" class="st3" d="M43.7,58.7c0,15.5,14.9,28,33.2,28c3.8,0,7.4-0.5,10.8-1.5c0.3-0.1,0.6-0.1,1-0.1
			c0.6,0,1.2,0.2,1.8,0.5l7.3,4.3c0.2,0.1,0.4,0.2,0.6,0.2c0.6,0,1.1-0.5,1.1-1.1c0-0.3-0.1-0.6-0.2-0.8c0-0.2-0.9-3.5-1.5-5.7
			c-0.1-0.2-0.1-0.5-0.1-0.7c0-0.8,0.4-1.4,0.9-1.8c7-5.1,11.5-12.7,11.5-21.2c0-15.5-14.9-28-33.2-28
			C58.5,30.6,43.7,43.2,43.7,58.7">
   </path>
   <g id="XMLID_625_">
    <path id="XMLID_627_" class="st4" d="M83.9,50.1c0,2.5,2,4.5,4.4,4.5c2.5,0,4.4-2,4.4-4.5c0-2.5-2-4.5-4.4-4.5
				C85.9,45.6,83.9,47.6,83.9,50.1">
    </path>
    <path id="XMLID_626_" class="st4" d="M61.6,50.1c0,2.5,2,4.5,4.4,4.5c2.5,0,4.4-2,4.4-4.5c0-2.5-2-4.5-4.4-4.5
				C63.6,45.6,61.6,47.6,61.6,50.1">
    </path>
   </g>
   <g id="XMLID_622_">
    <path id="XMLID_624_" class="st5" d="M31.9,22.8c0,3-2.4,5.4-5.3,5.4c-2.9,0-5.3-2.4-5.3-5.4c0-3,2.4-5.4,5.3-5.4
				C29.5,17.4,31.9,19.9,31.9,22.8">
    </path>
    <path id="XMLID_623_" class="st5" d="M58.5,22.8c0,3-2.4,5.4-5.3,5.4c-2.9,0-5.3-2.4-5.3-5.4c0-3,2.4-5.4,5.3-5.4
				C56.1,17.4,58.5,19.9,58.5,22.8">
    </path>
   </g>
  </g>
 </g>
</svg>