<?xml version="1.0" encoding="UTF-8"?>
<svg id="_图层_1" data-name="图层 1" xmlns="http://www.w3.org/2000/svg" viewBox="0 0 257.45 202.68">
  <defs>
    <style>
      .cls-1 {
        fill: #fb6500;
      }

      .cls-2 {
        fill: #0082ef;
      }

      .cls-3 {
        fill: #0079de;
      }

      .cls-4 {
        fill: #fc0;
      }

      .cls-5 {
        fill: #2dbc00;
      }
    </style>
  </defs>
  <path class="cls-1" d="M166.76,156.72c.06,.08,.13,.15,.2,.22,.12,.12,.25,.23,.39,.32,.27,.25,.54,.51,.8,.78,5.19,5.19,8.46,11.58,9.8,18.28,.02,.38,.06,.75,.12,1.13,.07,.41,.15,.82,.26,1.22,.51,1.88,1.51,3.66,2.99,5.14,4.53,4.53,11.88,4.53,16.41,0,4.53-4.53,4.53-11.88,0-16.41-1.6-1.6-3.54-2.63-5.6-3.1-.23-.05-.46-.1-.69-.14-.23-.04-.47-.07-.7-.1-6.87-1.28-13.43-4.57-18.74-9.88-.38-.38-.75-.77-1.12-1.17h0c-1.08-1.08-2.84-1.08-3.92,0-1.01,1.01-1.08,2.62-.2,3.71Z"/>
  <path class="cls-2" d="M203.45,165.63c.08-.06,.15-.13,.22-.2,.12-.12,.23-.25,.32-.39,.25-.27,.51-.54,.78-.8,5.19-5.19,11.58-8.46,18.28-9.8,.38-.02,.75-.06,1.13-.12,.41-.07,.82-.15,1.22-.26,1.88-.51,3.66-1.51,5.14-2.99,4.53-4.53,4.53-11.88,0-16.41-4.53-4.53-11.88-4.53-16.41,0-1.6,1.6-2.63,3.54-3.1,5.6-.05,.23-.1,.46-.14,.69-.04,.23-.07,.47-.1,.7-1.28,6.87-4.57,13.43-9.88,18.74-.38,.38-.77,.75-1.17,1.12h0c-1.08,1.08-1.08,2.84,0,3.93,1.01,1.01,2.62,1.08,3.71,.2Z"/>
  <path class="cls-5" d="M212.37,128.94c-.06-.08-.13-.15-.2-.22-.12-.12-.25-.23-.39-.32-.27-.25-.54-.51-.8-.78-5.19-5.19-8.46-11.58-9.8-18.28-.02-.38-.06-.75-.12-1.13-.07-.41-.15-.82-.26-1.22-.51-1.88-1.51-3.66-2.99-5.14-4.53-4.53-11.88-4.53-16.41,0-4.53,4.53-4.53,11.88,0,16.41,1.6,1.6,3.54,2.63,5.6,3.1,.23,.05,.46,.1,.69,.14,.23,.04,.47,.07,.7,.1,6.87,1.28,13.43,4.57,18.74,9.88,.38,.38,.75,.77,1.12,1.17h0c1.08,1.08,2.84,1.08,3.92,0,1.01-1.01,1.08-2.62,.2-3.71Z"/>
  <path class="cls-4" d="M175.68,120.03c-.08,.06-.15,.13-.22,.2-.12,.12-.23,.25-.32,.39-.25,.27-.51,.54-.78,.8-5.19,5.19-11.58,8.46-18.28,9.8-.38,.02-.75,.06-1.13,.12-.41,.07-.82,.15-1.22,.26-1.88,.51-3.66,1.51-5.14,2.99-4.53,4.53-4.53,11.88,0,16.41,4.53,4.53,11.88,4.53,16.41,0,1.6-1.6,2.63-3.54,3.1-5.6,.05-.23,.1-.46,.14-.69,.04-.23,.07-.47,.1-.7,1.28-6.87,4.57-13.43,9.88-18.74,.38-.38,.77-.75,1.17-1.12h0c1.08-1.08,1.08-2.84,0-3.93-1.01-1.01-2.62-1.08-3.71-.2Z"/>
  <path class="cls-3" d="M192.93,63.33c-3.23-6.63-7.56-12.79-12.89-18.3-13.46-13.92-32.29-22.88-53.04-25.24-3.72-.42-7.42-.64-10.97-.64s-6.93,.2-10.51,.59c-20.84,2.27-39.79,11.18-53.34,25.11-5.35,5.5-9.71,11.64-12.96,18.25-4.41,8.98-6.64,18.5-6.64,28.32,0,12.64,3.85,25.1,11.12,36.03,4.11,6.19,11.15,14.18,17.17,19.08h0s-3.33,13.79-3.33,13.79l-.96,3.89c-.17,.38-.3,.78-.39,1.2-.06,.25-.07,.52-.1,.79-.02,.2-.06,.4-.06,.6,0,3.55,2.88,6.42,6.42,6.42,1.16,0,2.23-.33,3.17-.87,.03-.02,.06-.03,.09-.05,.14-.08,.28-.15,.41-.24l23.82-11.96c5.13,1.47,10.21,2.41,15.58,3,3.49,.38,7.02,.58,10.52,.58s7.25-.21,10.97-.64c7.31-.83,14.35-2.52,21.03-4.91-.72-.24-1.43-.55-2.12-.95-4.09-2.34-6.2-6.78-5.78-11.18-4.77,1.52-9.76,2.6-14.91,3.19-3.13,.36-6.22,.54-9.2,.54s-5.88-.16-8.8-.48c-.61-.07-1.22-.16-1.82-.24-4.01-.53-7.97-1.35-11.8-2.47-.78-.25-1.61-.37-2.45-.37-1.32,0-2.6,.35-3.9,1.02-.17,.09-.34,.16-.5,.26l-15.28,9.01h-.02c-.32,.19-.5,.26-.66,.26-.54,0-.97-.45-.97-1.01l.56-2.28c.16-.6,.38-1.45,.65-2.48,.67-2.54,1.58-6.02,2.26-8.61,.15-.53,.3-1.16,.3-1.87,0-1.97-.94-3.83-2.51-4.97-.8-.59-1.59-1.21-2.43-1.89-1.28-1.04-2.51-2.13-3.69-3.25-3.32-3.15-6.23-6.58-8.68-10.26-5.76-8.66-8.81-18.49-8.81-28.43,0-7.71,1.76-15.21,5.24-22.28,2.6-5.29,6.09-10.21,10.4-14.63,11.14-11.45,26.81-18.79,44.12-20.67,3.01-.33,5.97-.49,8.8-.49,2.97,0,6.07,.18,9.2,.54,17.23,1.96,32.81,9.34,43.86,20.77,4.28,4.43,7.76,9.36,10.34,14.66,3.42,7.03,5.16,14.47,5.16,22.11,0,.79-.05,1.58-.09,2.38,4.47-2.73,10.37-2.2,14.24,1.67,.2,.2,.36,.41,.54,.62,.13-1.63,.2-3.26,.2-4.89,0-9.72-2.2-19.18-6.54-28.09Z"/>
</svg>