<svg width="800" height="600" xmlns="http://www.w3.org/2000/svg">
  <defs>
    <style>
      .title { font-family: Arial, sans-serif; font-size: 18px; font-weight: bold; }
      .subtitle { font-family: Arial, sans-serif; font-size: 14px; font-weight: bold; }
      .text { font-family: Arial, sans-serif; font-size: 12px; }
      .matrix-box { fill: #4CAF50; stroke: #2E7D32; stroke-width: 2; }
      .element-box { fill: #E8F5E8; stroke: #4CAF50; stroke-width: 1; }
      .web-element { fill: #2196F3; stroke: #1565C0; stroke-width: 1; }
      .ai-element { fill: #FF9800; stroke: #E65100; stroke-width: 1; }
      .arrow { stroke: #333; stroke-width: 2; fill: none; marker-end: url(#arrowhead); }
    </style>
    <marker id="arrowhead" markerWidth="10" markerHeight="7" refX="9" refY="3.5" orient="auto">
      <polygon points="0 0, 10 3.5, 0 7" fill="#333" />
    </marker>
  </defs>
  
  <!-- 标题 -->
  <text x="400" y="30" text-anchor="middle" class="title">JitAi矩阵型元素架构</text>
  
  <!-- 核心架构 -->
  <rect x="50" y="60" width="700" height="140" class="matrix-box" rx="10"/>
  <text x="400" y="85" text-anchor="middle" class="subtitle" fill="white">JitAi矩阵型元素架构</text>
  <text x="400" y="105" text-anchor="middle" class="text" fill="white">200+现成元素，开箱即用</text>
  <text x="400" y="125" text-anchor="middle" class="text" fill="white">元素自描述</text>
  <text x="400" y="145" text-anchor="middle" class="text" fill="white">动态加载，按需加载</text>
  <text x="400" y="165" text-anchor="middle" class="text" fill="white">高可扩展，随意搭配组合</text>
  <text x="400" y="185" text-anchor="middle" class="text" fill="white">实时编译，立即生效</text>
  
  <!-- Web开发元素 -->
  <rect x="80" y="220" width="300" height="280" fill="#E3F2FD" stroke="#1976D2" stroke-width="2" rx="10"/>
  <text x="230" y="245" text-anchor="middle" class="subtitle">Web开发元素</text>
  
  <!-- 前端元素 -->
  <rect x="100" y="270" width="120" height="80" class="web-element" rx="5"/>
  <text x="160" y="290" text-anchor="middle" class="text" fill="white">门户</text>
  <text x="160" y="305" text-anchor="middle" class="text" fill="white">页面</text>
  <text x="160" y="320" text-anchor="middle" class="text" fill="white">前端组件</text>
  <text x="160" y="335" text-anchor="middle" class="text" fill="white">样式控件</text>
  
  <!-- 后端元素 -->
  <rect x="240" y="270" width="120" height="80" class="web-element" rx="5"/>
  <text x="300" y="290" text-anchor="middle" class="text" fill="white">后端服务</text>
  <text x="300" y="305" text-anchor="middle" class="text" fill="white">数据模型</text>
  <text x="300" y="320" text-anchor="middle" class="text" fill="white">数据库</text>
  <text x="300" y="335" text-anchor="middle" class="text" fill="white">缓存</text>
  
  <!-- 存储元素 -->
  <rect x="100" y="370" width="120" height="80" class="web-element" rx="5"/>
  <text x="160" y="390" text-anchor="middle" class="text" fill="white">对象存储</text>
  <text x="160" y="405" text-anchor="middle" class="text" fill="white">文件处理</text>
  <text x="160" y="420" text-anchor="middle" class="text" fill="white">模板引擎</text>
  <text x="160" y="435" text-anchor="middle" class="text" fill="white">API开放</text>
  
  <!-- 业务元素 -->
  <rect x="240" y="370" width="120" height="80" class="web-element" rx="5"/>
  <text x="300" y="390" text-anchor="middle" class="text" fill="white">用户权限</text>
  <text x="300" y="405" text-anchor="middle" class="text" fill="white">审批流程</text>
  <text x="300" y="420" text-anchor="middle" class="text" fill="white">第三方集成</text>
  <text x="300" y="435" text-anchor="middle" class="text" fill="white">企业组织</text>
  
  <!-- AI开发元素 -->
  <rect x="420" y="220" width="300" height="280" fill="#FFF3E0" stroke="#F57C00" stroke-width="2" rx="10"/>
  <text x="570" y="245" text-anchor="middle" class="subtitle">AI开发元素</text>

  <!-- 开发工具元素 -->
  <rect x="440" y="270" width="120" height="140" class="ai-element" rx="5"/>
  <text x="500" y="290" text-anchor="middle" class="text" fill="white">大模型</text>
  <text x="500" y="305" text-anchor="middle" class="text" fill="white">Deepseek</text>
  <text x="500" y="320" text-anchor="middle" class="text" fill="white">OpenAI</text>
  <text x="500" y="335" text-anchor="middle" class="text" fill="white">阿里百炼</text>
  <text x="500" y="350" text-anchor="middle" class="text" fill="white">硅基流动</text>
  <text x="500" y="365" text-anchor="middle" class="text" fill="white">Gemini</text>
  <text x="500" y="380" text-anchor="middle" class="text" fill="white">Anthropic</text>
  <text x="500" y="395" text-anchor="middle" class="text" fill="white">私有化模型</text>
  
  <!-- 大模型元素 -->
  <rect x="580" y="270" width="120" height="50" class="ai-element" rx="5"/>
  <text x="640" y="300" text-anchor="middle" class="text" fill="white">AI助理</text>
  
  <!-- AI助理元素 -->
  <rect x="580" y="330" width="120" height="50" class="ai-element" rx="5"/>
  <text x="640" y="360" text-anchor="middle" class="text" fill="white">AIAgent</text>

  
  <!-- 运维元素 -->
  <rect x="580" y="390" width="120" height="50" class="ai-element" rx="5"/>
  <text x="640" y="410" text-anchor="middle" class="text" fill="white">向量数据库</text>
  <text x="640" y="425" text-anchor="middle" class="text" fill="white">RAG知识库</text>
  
  <!-- 连接线 -->
  <line x1="400" y1="120" x2="230" y2="220" class="arrow"/>
  <line x1="400" y1="120" x2="570" y2="220" class="arrow"/>
  
  <!-- 核心特性 -->
  <text x="400" y="550" text-anchor="middle" class="subtitle">核心特性</text>
  <text x="150" y="575" text-anchor="middle" class="text">✓ 元素自描述</text>
  <text x="300" y="575" text-anchor="middle" class="text">✓ 高可扩展</text>
  <text x="450" y="575" text-anchor="middle" class="text">✓ 随意组合</text>
  <text x="600" y="575" text-anchor="middle" class="text">✓ 实时生效</text>
</svg>
