<?xml version="1.0" encoding="UTF-8"?>
<svg width="850" height="815" viewBox="0 0 1000 950" xmlns="http://www.w3.org/2000/svg">
  <defs>
    <!-- 定义渐变色 -->
    <linearGradient id="appToolGradient" x1="0%" y1="0%" x2="100%" y2="100%">
      <stop offset="0%" style="stop-color:#4F46E5;stop-opacity:1" />
      <stop offset="100%" style="stop-color:#6366F1;stop-opacity:1" />
    </linearGradient>
    
    <linearGradient id="appBusinessGradient" x1="0%" y1="0%" x2="100%" y2="100%">
      <stop offset="0%" style="stop-color:#0891B2;stop-opacity:1" />
      <stop offset="100%" style="stop-color:#0EA5E9;stop-opacity:1" />
    </linearGradient>
    
    <linearGradient id="appEcoGradient" x1="0%" y1="0%" x2="100%" y2="100%">
      <stop offset="0%" style="stop-color:#059669;stop-opacity:1" />
      <stop offset="100%" style="stop-color:#10B981;stop-opacity:1" />
    </linearGradient>
    
    <linearGradient id="frameworkGradient" x1="0%" y1="0%" x2="100%" y2="100%">
      <stop offset="0%" style="stop-color:#059669;stop-opacity:1" />
      <stop offset="100%" style="stop-color:#10B981;stop-opacity:1" />
    </linearGradient>
    
    <linearGradient id="runtimeGradient" x1="0%" y1="0%" x2="100%" y2="100%">
      <stop offset="0%" style="stop-color:#7C3AED;stop-opacity:1" />
      <stop offset="100%" style="stop-color:#8B5CF6;stop-opacity:1" />
    </linearGradient>
    
    <linearGradient id="jaapGradient" x1="0%" y1="0%" x2="100%" y2="100%">
      <stop offset="0%" style="stop-color:#F59E0B;stop-opacity:0.9" />
      <stop offset="100%" style="stop-color:#FBBF24;stop-opacity:0.9" />
    </linearGradient>
    
    <linearGradient id="osGradient" x1="0%" y1="0%" x2="100%" y2="100%">
      <stop offset="0%" style="stop-color:#0891B2;stop-opacity:1" />
      <stop offset="100%" style="stop-color:#0EA5E9;stop-opacity:1" />
    </linearGradient>
    
    <!-- 层间箭头渐变色 -->
    <linearGradient id="platformToFrameworkGradient" x1="0%" y1="100%" x2="0%" y2="0%">
      <stop offset="0%" style="stop-color:#7C3AED;stop-opacity:1" />
      <stop offset="100%" style="stop-color:#059669;stop-opacity:1" />
    </linearGradient>
    
    <linearGradient id="frameworkToAppGradient" x1="0%" y1="100%" x2="0%" y2="0%">
      <stop offset="0%" style="stop-color:#059669;stop-opacity:1" />
      <stop offset="100%" style="stop-color:#0891B2;stop-opacity:1" />
    </linearGradient>
    
    <linearGradient id="appToFrameworkGradient" x1="0%" y1="0%" x2="0%" y2="100%">
      <stop offset="0%" style="stop-color:#0891B2;stop-opacity:1" />
      <stop offset="100%" style="stop-color:#059669;stop-opacity:1" />
    </linearGradient>
    
    <linearGradient id="osToPlatformGradient" x1="0%" y1="100%" x2="0%" y2="0%">
      <stop offset="0%" style="stop-color:#0891B2;stop-opacity:1" />
      <stop offset="100%" style="stop-color:#7C3AED;stop-opacity:1" />
    </linearGradient>
    
    <!-- Apple Logo渐变色 -->
    <linearGradient id="appleGradient" x1="0%" y1="0%" x2="100%" y2="100%">
      <stop offset="0%" style="stop-color:#DC2626;stop-opacity:1" />
      <stop offset="100%" style="stop-color:#991B1B;stop-opacity:1" />
    </linearGradient>
    
    <!-- 阴影效果 -->
    <filter id="shadow" x="-20%" y="-20%" width="140%" height="140%">
      <feDropShadow dx="2" dy="4" stdDeviation="3" flood-color="#000000" flood-opacity="0.3"/>
    </filter>
    
    <!-- 定义箭头标记 -->
    <marker id="arrowheadPurple" markerWidth="6" markerHeight="6" refX="5" refY="3" orient="auto">
      <polygon points="0 0, 6 3, 0 6" fill="#7C3AED"/>
    </marker>
    <marker id="arrowheadGreen" markerWidth="6" markerHeight="6" refX="5" refY="3" orient="auto">
      <polygon points="0 0, 6 3, 0 6" fill="#10B981"/>
    </marker>
    <marker id="arrowheadBlue" markerWidth="6" markerHeight="6" refX="5" refY="3" orient="auto">
      <polygon points="0 0, 6 3, 0 6" fill="#0891B2"/>
    </marker>
  </defs>
  
  <!-- 背景 -->
  <rect width="1000" height="950" fill="#F8FAFC"/>
  
  <!-- 标题 -->
  <text x="500" y="40" text-anchor="middle" font-family="Arial, sans-serif" font-size="26" font-weight="bold" fill="#1E293B">JitAi 技术架构</text>
  
  <!-- 第四层：应用层 -->
  <rect x="60" y="140" width="880" height="200" rx="15" fill="#F1F5F9" stroke="#CBD5E1" stroke-width="2" filter="url(#shadow)"/>
  <text x="500" y="170" text-anchor="middle" font-family="Arial, sans-serif" font-size="22" font-weight="bold" fill="#1E293B">应用层</text>
  <text x="500" y="190" text-anchor="middle" font-family="Arial, sans-serif" font-size="13" fill="#64748B">遵循JAAP构建的开放应用生态</text>
  
  <!-- 应用层内部三个区域 -->
  <!-- 官方应用区域 -->
  <rect x="80" y="210" width="260" height="110" rx="10" fill="url(#appToolGradient)" filter="url(#shadow)"/>
  <text x="210" y="235" text-anchor="middle" font-family="Arial, sans-serif" font-size="16" font-weight="bold" fill="white">官方应用</text>
  <text x="210" y="255" text-anchor="middle" font-family="Arial, sans-serif" font-size="11" fill="white">默认实现・开箱即用</text>
  <text x="210" y="275" text-anchor="middle" font-family="Arial, sans-serif" font-size="12" fill="white">开发工具 | 运维平台</text>
  <text x="210" y="290" text-anchor="middle" font-family="Arial, sans-serif" font-size="12" fill="white">基础应用 | 示例应用</text>
  <text x="210" y="305" text-anchor="middle" font-family="Arial, sans-serif" font-size="12" fill="white">...</text>
  
  <!-- 业务应用区域 -->
  <rect x="370" y="210" width="260" height="110" rx="10" fill="url(#appBusinessGradient)" filter="url(#shadow)"/>
  <text x="500" y="235" text-anchor="middle" font-family="Arial, sans-serif" font-size="16" font-weight="bold" fill="white">常见业务应用</text>
  <text x="500" y="255" text-anchor="middle" font-family="Arial, sans-serif" font-size="11" fill="white">各类企业级业务系统</text>
  <text x="500" y="275" text-anchor="middle" font-family="Arial, sans-serif" font-size="12" fill="white">智能客服 | CRM系统</text>
  <text x="500" y="290" text-anchor="middle" font-family="Arial, sans-serif" font-size="12" fill="white">ERP | MES | OA</text>
  <text x="500" y="305" text-anchor="middle" font-family="Arial, sans-serif" font-size="12" fill="white">数据分析 | 业务管理</text>
  
  <!-- 应用生态区域 -->
  <rect x="660" y="210" width="260" height="110" rx="10" fill="url(#appEcoGradient)" filter="url(#shadow)"/>
  <text x="790" y="235" text-anchor="middle" font-family="Arial, sans-serif" font-size="16" font-weight="bold" fill="white">应用生态</text>
  <text x="790" y="255" text-anchor="middle" font-family="Arial, sans-serif" font-size="11" fill="white">开放创新・无限扩展</text>
  <text x="790" y="275" text-anchor="middle" font-family="Arial, sans-serif" font-size="12" fill="white">更多行业应用 | 标品模版</text>
  <text x="790" y="290" text-anchor="middle" font-family="Arial, sans-serif" font-size="12" fill="white">解决方案 | 定制创新</text>
  <text x="790" y="305" text-anchor="middle" font-family="Arial, sans-serif" font-size="12" fill="white">等等 | 无限扩展</text>
  
  <!-- 第三层：开发框架层 -->
  <rect x="60" y="400" width="880" height="140" rx="15" fill="url(#frameworkGradient)" filter="url(#shadow)"/>
  <text x="500" y="435" text-anchor="middle" font-family="Arial, sans-serif" font-size="22" font-weight="bold" fill="white">开发框架层</text>
  <text x="500" y="460" text-anchor="middle" font-family="Arial, sans-serif" font-size="14" fill="white">矩阵型元架构 - 全栈支撑应用开发</text>
  <text x="500" y="485" text-anchor="middle" font-family="Arial, sans-serif" font-size="13" fill="white">Ai | Auth | I18N | Message | ORM | Pay | Service | Storage | Task | Web | Workflow</text>
  <text x="500" y="510" text-anchor="middle" font-family="Arial, sans-serif" font-size="12" fill="white">高度可复用・可扩展・软件模块・无静态依赖</text>
  <text x="500" y="525" text-anchor="middle" font-family="Arial, sans-serif" font-size="10" font-style="italic" fill="#D1FAE5">遵循JAAP规范・开箱即用</text>
  
  <!-- 第二层：应用运行平台层（合并JAAP和运行平台） -->
  <rect x="60" y="600" width="880" height="195" rx="15" fill="url(#runtimeGradient)" filter="url(#shadow)"/>
  <text x="500" y="630" text-anchor="middle" font-family="Arial, sans-serif" font-size="22" font-weight="bold" fill="white">应用运行平台层</text>
  
  <!-- JAAP协议规范部分 -->
  <rect x="80" y="650" width="840" height="50" rx="8" fill="url(#jaapGradient)" stroke="#F59E0B" stroke-width="2" stroke-dasharray="6,4"/>
  <text x="500" y="670" text-anchor="middle" font-family="Arial, sans-serif" font-size="16" font-weight="bold" fill="white">JAAP</text>
  <text x="500" y="690" text-anchor="middle" font-family="Arial, sans-serif" font-size="12" fill="white">Jit AI Application Protocol - 统一架构语言</text>
  
  <!-- 微内核+解释器部分 -->
  <rect x="80" y="710" width="840" height="70" rx="8" fill="rgba(255,255,255,0.15)"/>
  <text x="500" y="730" text-anchor="middle" font-family="Arial, sans-serif" font-size="16" font-weight="bold" fill="white">微内核 + JAAP解释器</text>
  <text x="500" y="750" text-anchor="middle" font-family="Arial, sans-serif" font-size="12" fill="white">实时增量编译构建 | 模块级热更新 | 系统API | 虚拟化沙箱运行环境</text>
  <text x="500" y="770" text-anchor="middle" font-family="Arial, sans-serif" font-size="10" font-style="italic" fill="#E2E8F0">解释执行JAAP・提供运行环境</text>
  
  <!-- 第一层：操作系统层 -->
  <rect x="60" y="855" width="880" height="60" rx="15" fill="url(#osGradient)" filter="url(#shadow)"/>

  
  <!-- Windows图标 -->
  <rect x="167" y="877" width="6" height="6" rx="1" fill="white"/>
  <rect x="175" y="877" width="6" height="6" rx="1" fill="white"/>
  <rect x="167" y="885" width="6" height="6" rx="1" fill="white"/>
  <rect x="175" y="885" width="6" height="6" rx="1" fill="white"/>
  <text x="190" y="890" text-anchor="left" font-family="Arial, sans-serif" font-size="14" fill="white">Windows</text>
  
  <!-- MacOS图标 -->
  <g transform="translate(387,873) scale(0.035)">
    <path d="M349.13 136.86c-40.32 0-57.36 19.24-85.44 19.24-28.79 0-50.83-19.1-85.69-19.1-34.2 0-70.67 20.88-93.83 56.45-32.52 50.16-27 144.63 25.67 225.11 18.84 28.81 44 61.12 77 61.47h.6c28.68 0 37.2-18.78 76.67-19h.6c38.88 0 46.48 18.89 75.28 18.89h.6c33-.35 59.51-36.15 78.35-64.85 13.56-20.64 18.6-31 29.54-54.35-76.19-28.92-88.43-136.93-13.08-178.34-23-28.8-55.32-45.48-85.79-45.48z" fill="url(#appleGradient)"/>
    <path d="M340.25 32c-24 1.63-52 16.91-68.4 36.86-14.88 18.08-27.12 44.86-23.6 71.18 26.4.17 53.6-15.14 68.53-33.13C332.49 75.6 344.33 51.68 340.25 32z" fill="#22C55E"/>
  </g>
  <text x="410" y="890" text-anchor="left" font-family="Arial, sans-serif" font-size="14" fill="white">MacOS</text>
  
  <!-- Linux图标 -->
  <ellipse cx="607" cy="884" rx="5" ry="6" fill="#000000"/>
  <ellipse cx="607" cy="886" rx="3" ry="4" fill="white"/>
  <ellipse cx="607" cy="880" rx="3" ry="3" fill="#000000"/>
  <circle cx="605" cy="879" r="1" fill="white"/>
  <circle cx="609" cy="879" r="1" fill="white"/>
  <circle cx="605" cy="879" r="0.5" fill="#000000"/>
  <circle cx="609" cy="879" r="0.5" fill="#000000"/>
  <ellipse cx="607" cy="882" rx="1" ry="0.8" fill="#FF6B35"/>
  <ellipse cx="605" cy="890" rx="1.5" ry="0.8" fill="#FF6B35"/>
  <ellipse cx="609" cy="890" rx="1.5" ry="0.8" fill="#FF6B35"/>
  <text x="620" y="890" text-anchor="left" font-family="Arial, sans-serif" font-size="14" fill="white">Linux</text>
  
  <!-- Docker图标 -->
  <g transform="translate(827,878) scale(0.03)">
    <path d="M507,211.16c-1.42-1.19-14.25-10.94-41.79-10.94a132.55,132.55,0,0,0-21.61,1.9c-5.22-36.4-35.38-54-36.57-55l-7.36-4.28-4.75,6.9a101.65,101.65,0,0,0-13.06,30.45c-5,20.7-1.9,40.2,8.55,56.85-12.59,7.14-33,8.8-37.28,9H15.94A15.93,15.93,0,0,0,0,262.07,241.25,241.25,0,0,0,14.75,348.9C26.39,379.35,43.72,402,66,415.74,91.22,431.2,132.3,440,178.6,440a344.23,344.23,0,0,0,62.45-5.71,257.44,257.44,0,0,0,81.69-29.73a223.55,223.55,0,0,0,55.57-45.67c26.83-30.21,42.74-64,54.38-94h4.75c29.21,0,47.26-11.66,57.23-21.65a63.31,63.31,0,0,0,15.2-22.36l2.14-6.18Z" fill="#066da5"/>
    <path d="M47.29,236.37H92.4a4,4,0,0,0,4-4h0V191.89a4,4,0,0,0-4-4H47.29a4,4,0,0,0-4,4h0v40.44a4.16,4.16,0,0,0,4,4h0" fill="#066da5"/>
    <path d="M109.5,236.37h45.12a4,4,0,0,0,4-4h0V191.89a4,4,0,0,0-4-4H109.5a4,4,0,0,0-4,4v40.44a4.16,4.16,0,0,0,4,4" fill="#066da5"/>
    <path d="M172.9,236.37H218a4,4,0,0,0,4-4h0V191.89a4,4,0,0,0-4-4H172.9a4,4,0,0,0-4,4h0v40.44a3.87,3.87,0,0,0,4,4h0" fill="#066da5"/>
    <path d="M235.36,236.37h45.12a4,4,0,0,0,4-4V191.89a4,4,0,0,0-4-4H235.36a4,4,0,0,0-4,4h0v40.44a4,4,0,0,0,4,4h0" fill="#066da5"/>
    <path d="M109.5,178.57h45.12a4.16,4.16,0,0,0,4-4V134.09a4,4,0,0,0-4-4H109.5a4,4,0,0,0-4,4v40.44a4.34,4.34,0,0,0,4,4" fill="#066da5"/>
    <path d="M172.9,178.57H218a4.16,4.16,0,0,0,4-4V134.09a4,4,0,0,0-4-4H172.9a4,4,0,0,0-4,4h0v40.44a4,4,0,0,0,4,4" fill="#066da5"/>
    <path d="M235.36,178.57h45.12a4.16,4.16,0,0,0,4-4V134.09a4.16,4.16,0,0,0-4-4H235.36a4,4,0,0,0-4,4h0v40.44a4.16,4.16,0,0,0,4,4" fill="#066da5"/>
    <path d="M235.36,120.53h45.12a4,4,0,0,0,4-4V76a4.16,4.16,0,0,0-4-4H235.36a4,4,0,0,0-4,4h0v40.44a4.17,4.17,0,0,0,4,4" fill="#066da5"/>
    <path d="M298.28,236.37H343.4a4,4,0,0,0,4-4V191.89a4,4,0,0,0-4-4H298.28a4,4,0,0,0-4,4h0v40.44a4.16,4.16,0,0,0,4,4" fill="#066da5"/>
  </g>
  <text x="845" y="890" text-anchor="left" font-family="Arial, sans-serif" font-size="14" fill="white">Docker</text>
  

  
  <!-- 层间关系箭头 -->
  
  <!-- 操作系统 → 应用运行平台 -->
  <polygon points="470,825 530,825 530,815 500,800 470,815" fill="url(#osToPlatformGradient)" filter="url(#shadow)"/>
  <text x="500" y="840" text-anchor="middle" font-family="Arial, sans-serif" font-size="12" font-weight="bold" fill="#0891B2">跨平台部署</text>
  
  <!-- 应用运行平台 → 开发框架 -->
  <polygon points="470,570 530,570 530,560 500,545 470,560" fill="url(#platformToFrameworkGradient)" filter="url(#shadow)"/>
  <text x="500" y="585" text-anchor="middle" font-family="Arial, sans-serif" font-size="12" font-weight="bold" fill="#7C3AED">解释执行</text>
  
  <!-- 应用层 → 开发框架 -->
  <polygon points="420,370 480,370 480,380 450,395 420,380" fill="url(#appToFrameworkGradient)" filter="url(#shadow)"/>
  <text x="450" y="360" text-anchor="middle" font-family="Arial, sans-serif" font-size="12" font-weight="bold" fill="#4F46E5">共性沉淀</text>
  
  <!-- 开发框架 → 应用层 -->
  <polygon points="520,370 580,370 580,360 550,345 520,360" fill="url(#frameworkToAppGradient)" filter="url(#shadow)"/>
  <text x="550" y="385" text-anchor="middle" font-family="Arial, sans-serif" font-size="12" font-weight="bold" fill="#059669">框架支撑</text>
  

  
  <!-- 核心特性说明 -->
  <rect x="60" y="70" width="880" height="35" rx="8" fill="#F1F5F9" stroke="#CBD5E1" stroke-width="1"/>

  <text x="180" y="90" font-family="Arial, sans-serif" font-size="11" fill="#475569">• 解释型系统</text>
  <text x="320" y="90" font-family="Arial, sans-serif" font-size="11" fill="#475569">• 矩阵型元架构</text>
  <text x="460" y="90" font-family="Arial, sans-serif" font-size="11" fill="#475569">• 图形化编排开发</text>
  <text x="600" y="90" font-family="Arial, sans-serif" font-size="11" fill="#475569">• 自动化运维</text>
  <text x="740" y="90" font-family="Arial, sans-serif" font-size="11" fill="#475569">• 开放的应用生态</text>
  
</svg> 