<svg width="500" height="350" viewBox="0 0 500 350" xmlns="http://www.w3.org/2000/svg">
  <defs>
    <!-- 主渐变 - 黑白灰 -->
    <linearGradient id="primaryGradient" x1="0%" y1="0%" x2="100%" y2="100%">
      <stop offset="0%" style="stop-color:#4a5568;stop-opacity:1" />
      <stop offset="100%" style="stop-color:#2d3748;stop-opacity:1" />
    </linearGradient>
    
    <!-- 次要渐变 - 浅灰 -->
    <linearGradient id="secondaryGradient" x1="0%" y1="0%" x2="100%" y2="100%">
      <stop offset="0%" style="stop-color:#718096;stop-opacity:1" />
      <stop offset="100%" style="stop-color:#4a5568;stop-opacity:1" />
    </linearGradient>
    
    <!-- 成功渐变 - 深灰 -->
    <linearGradient id="successGradient" x1="0%" y1="0%" x2="100%" y2="100%">
      <stop offset="0%" style="stop-color:#2d3748;stop-opacity:1" />
      <stop offset="100%" style="stop-color:#1a202c;stop-opacity:1" />
    </linearGradient>
    
    <!-- 箭头标记 -->
    <marker id="flowArrow" markerWidth="8" markerHeight="8" refX="6" refY="3" orient="auto">
      <path d="M0,0 L0,6 L6,3 z" fill="#4a5568"/>
    </marker>
  </defs>

  <!-- 背景 -->
  <rect width="500" height="350" fill="#f7fafc" rx="12" stroke="#e2e8f0" stroke-width="1"/>



  <!-- 云端分发 -->
  <g transform="translate(130, 110)">
    <rect x="-100" y="-60" width="200" height="120" fill="url(#primaryGradient)" opacity="0.9" rx="8" stroke="#4a5568" stroke-width="1">
      <animate attributeName="opacity" values="0.9;1;0.9" dur="3s" repeatCount="indefinite"/>
    </rect>
    
    <text x="0" y="-30" text-anchor="middle" fill="white" font-size="16" font-weight="600" font-family="system-ui, -apple-system, sans-serif">云端分发</text>
    <text x="0" y="-10" text-anchor="middle" fill="white" font-size="12" font-family="system-ui, -apple-system, sans-serif">Cloud Distribution</text>

    <!-- 云朵图标 -->
    <g transform="translate(0, 20)">
      <path d="M-15,0 C-20,-5 -30,-5 -30,0 C-35,-3 -40,2 -35,5 C-40,8 -35,13 -30,10 C-25,15 -15,15 -10,10 C-5,15 5,10 0,5 C5,2 0,-3 -5,0 Z" 
            fill="white" opacity="0.9">
        <animate attributeName="opacity" values="0.9;1;0.9" dur="3s" repeatCount="indefinite"/>
      </path>
      
      <!-- 云中的小圆点 -->
      <circle cx="-8" cy="2" r="1" fill="#4a5568"/>
      <circle cx="0" cy="2" r="1" fill="#4a5568"/>
      <circle cx="8" cy="2" r="1" fill="#4a5568"/>
    </g>

    <!-- 上传箭头 -->
    <g transform="translate(0, 45)" stroke="white" stroke-width="3" fill="none" stroke-linecap="round" stroke-linejoin="round">
      <path d="M0,0 L0,20 M-5,15 L0,20 L5,15">
        <animate attributeName="stroke-dasharray" values="0,30;15,30" dur="2s" repeatCount="indefinite"/>
      </path>
    </g>
    <text x="0" y="80" text-anchor="middle" fill="white" font-size="10" font-weight="500" font-family="system-ui, -apple-system, sans-serif">上传</text>

    <!-- 下载箭头 -->
    <g transform="translate(0, 90)" stroke="white" stroke-width="3" fill="none" stroke-linecap="round" stroke-linejoin="round">
      <path d="M0,0 L0,20 M-5,5 L0,0 L5,5">
        <animate attributeName="stroke-dasharray" values="0,30;15,30" dur="2s" repeatCount="indefinite" begin="1s"/>
      </path>
    </g>
    <text x="0" y="125" text-anchor="middle" fill="white" font-size="10" font-weight="500" font-family="system-ui, -apple-system, sans-serif">下载</text>
  </g>

  <!-- 本地分发 -->
  <g transform="translate(370, 110)">
    <rect x="-100" y="-60" width="200" height="120" fill="url(#primaryGradient)" opacity="0.7" rx="8" stroke="#4a5568" stroke-width="1">
      <animate attributeName="opacity" values="0.7;0.9;0.7" dur="3s" repeatCount="indefinite" begin="1s"/>
    </rect>
    
    <text x="0" y="-30" text-anchor="middle" fill="white" font-size="16" font-weight="600" font-family="system-ui, -apple-system, sans-serif">本地分发</text>
    <text x="0" y="-10" text-anchor="middle" fill="white" font-size="12" font-family="system-ui, -apple-system, sans-serif">Local Distribution</text>

    <!-- 本地服务器图标 -->
    <g transform="translate(0, 20)">
      <rect x="-15" y="-10" width="30" height="20" fill="white" opacity="0.9" rx="4"/>
      <rect x="-12" y="-7" width="24" height="2" rx="1" fill="#4a5568"/>
      <rect x="-12" y="-3" width="16" height="1" rx="0.5" fill="#4a5568"/>
      <rect x="-12" y="0" width="20" height="1" rx="0.5" fill="#4a5568"/>
      <rect x="-12" y="3" width="12" height="1" rx="0.5" fill="#4a5568"/>
      <rect x="-12" y="6" width="18" height="1" rx="0.5" fill="#4a5568"/>
    </g>

    <!-- 导出箭头 -->
    <g transform="translate(0, 45)" stroke="white" stroke-width="3" fill="none" stroke-linecap="round" stroke-linejoin="round">
      <path d="M0,0 L0,20 M-5,15 L0,20 L5,15">
        <animate attributeName="stroke-dasharray" values="0,30;15,30" dur="2s" repeatCount="indefinite" begin="0.5s"/>
      </path>
    </g>
    <text x="0" y="80" text-anchor="middle" fill="white" font-size="10" font-weight="500" font-family="system-ui, -apple-system, sans-serif">导出</text>

    <!-- 导入箭头 -->
    <g transform="translate(0, 90)" stroke="white" stroke-width="3" fill="none" stroke-linecap="round" stroke-linejoin="round">
      <path d="M0,0 L0,20 M-5,5 L0,0 L5,5">
        <animate attributeName="stroke-dasharray" values="0,30;15,30" dur="2s" repeatCount="indefinite" begin="1.5s"/>
      </path>
    </g>
    <text x="0" y="125" text-anchor="middle" fill="white" font-size="10" font-weight="500" font-family="system-ui, -apple-system, sans-serif">导入</text>
  </g>

  <!-- 代码包管理 -->
  <rect x="30" y="200" width="440" height="130" fill="#f1f5f9" rx="8" stroke="#e2e8f0" stroke-width="1"/>
  <text x="250" y="225" text-anchor="middle" fill="#4a5568" font-size="16" font-weight="600" font-family="system-ui, -apple-system, sans-serif">代码包管理</text>

  <!-- 代码包图标 -->
  <g transform="translate(250, 270)">
    <rect x="-50" y="-30" width="100" height="60" fill="url(#secondaryGradient)" opacity="0.9" rx="6" stroke="#4a5568" stroke-width="1">
      <animate attributeName="opacity" values="0.9;1;0.9" dur="3s" repeatCount="indefinite" begin="0.5s"/>
    </rect>
    
    <!-- 包内容图标 -->
    <g stroke="white" stroke-width="2" fill="none" stroke-linecap="round" stroke-linejoin="round">
      <rect x="-30" y="-15" width="60" height="30" rx="2"/>
      <line x1="-20" y1="-10" x2="20" y2="-10"/>
      <line x1="-20" y1="-5" x2="15" y2="-5"/>
      <line x1="-20" y1="0" x2="18" y2="0"/>
      <line x1="-20" y1="5" x2="12" y2="5"/>
      <line x1="-20" y1="10" x2="16" y2="10"/>
      <line x1="-20" y1="15" x2="14" y2="15"/>
    </g>
  </g>

  <!-- 连接线 -->
  <g stroke="#cbd5e1" stroke-width="2" fill="none" stroke-dasharray="5,5" marker-end="url(#flowArrow)">
    <line x1="130" y1="235" x2="200" y2="240">
      <animate attributeName="stroke-dasharray" values="5,5;15,5;5,5" dur="3s" repeatCount="indefinite"/>
    </line>
    <line x1="370" y1="235" x2="300" y2="240">
      <animate attributeName="stroke-dasharray" values="5,5;15,5;5,5" dur="3s" repeatCount="indefinite" begin="1s"/>
    </line>
  </g>

  <!-- 分发方式说明 -->
  <text x="130" y="280" text-anchor="middle" fill="#4a5568" font-size="10" font-weight="500" font-family="system-ui, -apple-system, sans-serif">线上分发</text>
  <text x="370" y="280" text-anchor="middle" fill="#4a5568" font-size="10" font-weight="500" font-family="system-ui, -apple-system, sans-serif">线下分发</text>

  <!-- 特性说明 -->
  <text x="250" y="320" text-anchor="middle" fill="#4a5568" font-size="12" font-family="system-ui, -apple-system, sans-serif">一键上传 • 自动下载 • 离线部署 • 版本管理</text>
</svg>