<?xml version="1.0" encoding="UTF-8"?>
<svg width="850" height="920" viewBox="0 0 1000 1080" xmlns="http://www.w3.org/2000/svg">
  <defs>
    <!-- 定义渐变色 -->
    <linearGradient id="devToolGradient" x1="0%" y1="0%" x2="100%" y2="100%">
      <stop offset="0%" style="stop-color:#4F46E5;stop-opacity:1" />
      <stop offset="100%" style="stop-color:#6366F1;stop-opacity:1" />
    </linearGradient>
    
    <linearGradient id="frameworkGradient" x1="0%" y1="0%" x2="100%" y2="100%">
      <stop offset="0%" style="stop-color:#059669;stop-opacity:1" />
      <stop offset="100%" style="stop-color:#10B981;stop-opacity:1" />
    </linearGradient>
    
    <linearGradient id="opsGradient" x1="0%" y1="0%" x2="100%" y2="100%">
      <stop offset="0%" style="stop-color:#DC2626;stop-opacity:1" />
      <stop offset="100%" style="stop-color:#EF4444;stop-opacity:1" />
    </linearGradient>
    
    <linearGradient id="runtimeGradient" x1="0%" y1="0%" x2="100%" y2="100%">
      <stop offset="0%" style="stop-color:#7C3AED;stop-opacity:1" />
      <stop offset="100%" style="stop-color:#8B5CF6;stop-opacity:1" />
    </linearGradient>
    
    <linearGradient id="jaapGradient" x1="0%" y1="0%" x2="100%" y2="100%">
      <stop offset="0%" style="stop-color:#F59E0B;stop-opacity:0.8" />
      <stop offset="100%" style="stop-color:#FBBF24;stop-opacity:0.8" />
    </linearGradient>
    
    <linearGradient id="appGradient" x1="0%" y1="0%" x2="100%" y2="100%">
      <stop offset="0%" style="stop-color:#0891B2;stop-opacity:1" />
      <stop offset="100%" style="stop-color:#0EA5E9;stop-opacity:1" />
    </linearGradient>
    
    <linearGradient id="osGradient" x1="0%" y1="0%" x2="100%" y2="100%">
      <stop offset="0%" style="stop-color:#0891B2;stop-opacity:1" />
      <stop offset="100%" style="stop-color:#0EA5E9;stop-opacity:1" />
    </linearGradient>
    
    <!-- 大箭头渐变色 - 自底向上 -->
    <linearGradient id="platformToJaapGradient" x1="0%" y1="100%" x2="0%" y2="0%">
      <stop offset="0%" style="stop-color:#7C3AED;stop-opacity:1" />
      <stop offset="100%" style="stop-color:#F59E0B;stop-opacity:1" />
    </linearGradient>
    
    <linearGradient id="jaapToComponentsGradient" x1="0%" y1="100%" x2="0%" y2="0%">
      <stop offset="0%" style="stop-color:#F59E0B;stop-opacity:1" />
      <stop offset="100%" style="stop-color:#374151;stop-opacity:1" />
    </linearGradient>
    
    <linearGradient id="componentsToAppGradient" x1="0%" y1="100%" x2="0%" y2="0%">
      <stop offset="0%" style="stop-color:#374151;stop-opacity:1" />
      <stop offset="100%" style="stop-color:#0891B2;stop-opacity:1" />
    </linearGradient>
    
    <linearGradient id="osToPlatformGradient" x1="0%" y1="100%" x2="0%" y2="0%">
      <stop offset="0%" style="stop-color:#0891B2;stop-opacity:1" />
      <stop offset="100%" style="stop-color:#7C3AED;stop-opacity:1" />
    </linearGradient>
    
    <!-- Apple Logo渐变色 -->
    <linearGradient id="appleGradient" x1="0%" y1="0%" x2="100%" y2="100%">
      <stop offset="0%" style="stop-color:#DC2626;stop-opacity:1" />
      <stop offset="100%" style="stop-color:#991B1B;stop-opacity:1" />
    </linearGradient>
    
    <!-- 阴影效果 -->
    <filter id="shadow" x="-20%" y="-20%" width="140%" height="140%">
      <feDropShadow dx="2" dy="4" stdDeviation="3" flood-color="#000000" flood-opacity="0.3"/>
    </filter>
    
    <!-- 定义箭头标记 -->
    <marker id="arrowheadPurple" markerWidth="6" markerHeight="6" refX="5" refY="3" orient="auto">
      <polygon points="0 0, 6 3, 0 6" fill="#7C3AED"/>
    </marker>
    <marker id="arrowheadGray" markerWidth="6" markerHeight="6" refX="5" refY="3" orient="auto">
      <polygon points="0 0, 6 3, 0 6" fill="#374151"/>
    </marker>
    <marker id="arrowheadGreen" markerWidth="6" markerHeight="6" refX="5" refY="3" orient="auto">
      <polygon points="0 0, 6 3, 0 6" fill="#10B981"/>
    </marker>
  </defs>
  
  <!-- 背景 -->
  <rect width="1000" height="1080" fill="#F8FAFC"/>
  
  <!-- 标题 -->
  <text x="500" y="40" text-anchor="middle" font-family="Arial, sans-serif" font-size="26" font-weight="bold" fill="#1E293B">JitAi 技术架构</text>
  
  <!-- 第一层：应用运行平台（基础设施层） -->
  <rect x="60" y="780" width="880" height="120" rx="15" fill="url(#runtimeGradient)" filter="url(#shadow)"/>
  <text x="500" y="820" text-anchor="middle" font-family="Arial, sans-serif" font-size="22" font-weight="bold" fill="white">应用运行平台</text>
  <text x="500" y="845" text-anchor="middle" font-family="Arial, sans-serif" font-size="15" fill="white">微内核 + JAAP解释器 + 虚拟化环境</text>
  <text x="500" y="865" text-anchor="middle" font-family="Arial, sans-serif" font-size="13" fill="#E2E8F0">实时编译构建 | 热更新部署 | 系统API | 实例管理</text>
  <text x="500" y="885" text-anchor="middle" font-family="Arial, sans-serif" font-size="12" font-style="italic" fill="#E2E8F0">运行平台层</text>
  
  <!-- 底层：操作系统支持层 -->
  <rect x="60" y="970" width="880" height="90" rx="12" fill="url(#osGradient)" filter="url(#shadow)"/>
  <text x="500" y="1000" text-anchor="middle" font-family="Arial, sans-serif" font-size="20" font-weight="bold" fill="white">操作系统支持</text>
  
  <!-- Windows图标 - 四个方块 -->
  <rect x="167" y="1012" width="6" height="6" rx="1" fill="white"/>
  <rect x="175" y="1012" width="6" height="6" rx="1" fill="white"/>
  <rect x="167" y="1020" width="6" height="6" rx="1" fill="white"/>
  <rect x="175" y="1020" width="6" height="6" rx="1" fill="white"/>
  <text x="190" y="1025" text-anchor="left" font-family="Arial, sans-serif" font-size="16" fill="white">Windows</text>
  
  <!-- MacOS图标 - Apple Logo -->
  <g transform="translate(387,1008) scale(0.045)">
    <!-- Apple苹果主体 -->
    <path d="M349.13 136.86c-40.32 0-57.36 19.24-85.44 19.24-28.79 0-50.83-19.1-85.69-19.1-34.2 0-70.67 20.88-93.83 56.45-32.52 50.16-27 144.63 25.67 225.11 18.84 28.81 44 61.12 77 61.47h.6c28.68 0 37.2-18.78 76.67-19h.6c38.88 0 46.48 18.89 75.28 18.89h.6c33-.35 59.51-36.15 78.35-64.85 13.56-20.64 18.6-31 29.54-54.35-76.19-28.92-88.43-136.93-13.08-178.34-23-28.8-55.32-45.48-85.79-45.48z" fill="url(#appleGradient)"/>
    <!-- Apple叶子/茎部 -->
    <path d="M340.25 32c-24 1.63-52 16.91-68.4 36.86-14.88 18.08-27.12 44.86-23.6 71.18 26.4.17 53.6-15.14 68.53-33.13C332.49 75.6 344.33 51.68 340.25 32z" fill="#22C55E"/>
  </g>
  <text x="410" y="1025" text-anchor="left" font-family="Arial, sans-serif" font-size="16" fill="white">MacOS</text>
  
  <!-- Linux图标 - 企鹅Tux -->
  <!-- 企鹅身体 (黑色) -->
  <ellipse cx="607" cy="1019" rx="6" ry="8" fill="#000000"/>
  <!-- 企鹅肚子 (白色) -->
  <ellipse cx="607" cy="1021" rx="4" ry="6" fill="white"/>
  <!-- 企鹅头部 (黑色) -->
  <ellipse cx="607" cy="1013" rx="4" ry="4" fill="#000000"/>
  <!-- 眼睛 (白色) -->
  <circle cx="604" cy="1012" r="1.5" fill="white"/>
  <circle cx="610" cy="1012" r="1.5" fill="white"/>
  <!-- 眼珠 (黑色) -->
  <circle cx="604" cy="1012" r="0.8" fill="#000000"/>
  <circle cx="610" cy="1012" r="0.8" fill="#000000"/>
  <!-- 嘴巴 (橙色) -->
  <ellipse cx="607" cy="1015" rx="1.5" ry="1" fill="#FF6B35"/>
  <!-- 脚蹼 (橙色) -->
  <ellipse cx="604" cy="1027" rx="2" ry="1" fill="#FF6B35"/>
  <ellipse cx="610" cy="1027" rx="2" ry="1" fill="#FF6B35"/>
  <text x="622" y="1025" text-anchor="left" font-family="Arial, sans-serif" font-size="16" fill="white">Linux</text>
  
  <!-- Docker图标 - 官方Logo -->
  <g transform="translate(827,1008) scale(0.04)">
    <!-- 主鲸鱼轮廓 -->
    <path d="M507,211.16c-1.42-1.19-14.25-10.94-41.79-10.94a132.55,132.55,0,0,0-21.61,1.9c-5.22-36.4-35.38-54-36.57-55l-7.36-4.28-4.75,6.9a101.65,101.65,0,0,0-13.06,30.45c-5,20.7-1.9,40.2,8.55,56.85-12.59,7.14-33,8.8-37.28,9H15.94A15.93,15.93,0,0,0,0,262.07,241.25,241.25,0,0,0,14.75,348.9C26.39,379.35,43.72,402,66,415.74,91.22,431.2,132.3,440,178.6,440a344.23,344.23,0,0,0,62.45-5.71,257.44,257.44,0,0,0,81.69-29.73,223.55,223.55,0,0,0,55.57-45.67c26.83-30.21,42.74-64,54.38-94h4.75c29.21,0,47.26-11.66,57.23-21.65a63.31,63.31,0,0,0,15.2-22.36l2.14-6.18Z" fill="#066da5"/>
    
    <!-- 集装箱部分 -->
    <path d="M47.29,236.37H92.4a4,4,0,0,0,4-4h0V191.89a4,4,0,0,0-4-4H47.29a4,4,0,0,0-4,4h0v40.44a4.16,4.16,0,0,0,4,4h0" fill="#066da5"/>
    <path d="M109.5,236.37h45.12a4,4,0,0,0,4-4h0V191.89a4,4,0,0,0-4-4H109.5a4,4,0,0,0-4,4v40.44a4.16,4.16,0,0,0,4,4" fill="#066da5"/>
    <path d="M172.9,236.37H218a4,4,0,0,0,4-4h0V191.89a4,4,0,0,0-4-4H172.9a4,4,0,0,0-4,4h0v40.44a3.87,3.87,0,0,0,4,4h0" fill="#066da5"/>
    <path d="M235.36,236.37h45.12a4,4,0,0,0,4-4V191.89a4,4,0,0,0-4-4H235.36a4,4,0,0,0-4,4h0v40.44a4,4,0,0,0,4,4h0" fill="#066da5"/>
    <path d="M109.5,178.57h45.12a4.16,4.16,0,0,0,4-4V134.09a4,4,0,0,0-4-4H109.5a4,4,0,0,0-4,4v40.44a4.34,4.34,0,0,0,4,4" fill="#066da5"/>
    <path d="M172.9,178.57H218a4.16,4.16,0,0,0,4-4V134.09a4,4,0,0,0-4-4H172.9a4,4,0,0,0-4,4h0v40.44a4,4,0,0,0,4,4" fill="#066da5"/>
    <path d="M235.36,178.57h45.12a4.16,4.16,0,0,0,4-4V134.09a4.16,4.16,0,0,0-4-4H235.36a4,4,0,0,0-4,4h0v40.44a4.16,4.16,0,0,0,4,4" fill="#066da5"/>
    <path d="M235.36,120.53h45.12a4,4,0,0,0,4-4V76a4.16,4.16,0,0,0-4-4H235.36a4,4,0,0,0-4,4h0v40.44a4.17,4.17,0,0,0,4,4" fill="#066da5"/>
    <path d="M298.28,236.37H343.4a4,4,0,0,0,4-4V191.89a4,4,0,0,0-4-4H298.28a4,4,0,0,0-4,4h0v40.44a4.16,4.16,0,0,0,4,4" fill="#066da5"/>
  </g>
  <text x="850" y="1025" text-anchor="left" font-family="Arial, sans-serif" font-size="16" fill="white">Docker</text>
  
  <text x="500" y="1045" text-anchor="middle" font-family="Arial, sans-serif" font-size="12" font-style="italic" fill="#E2E8F0">基础设施层 - 跨平台支持</text>
  
  <!-- 第二层：JAAP协议层（统一标准层） -->
  <rect x="60" y="620" width="880" height="90" rx="10" fill="url(#jaapGradient)" filter="url(#shadow)" stroke="#F59E0B" stroke-width="2" stroke-dasharray="8,6"/>
  <text x="500" y="650" text-anchor="middle" font-family="Arial, sans-serif" font-size="20" font-weight="bold" fill="white">JAAP 协议规范</text>
  <text x="500" y="675" text-anchor="middle" font-family="Arial, sans-serif" font-size="14" fill="white">Jit AI Application Protocol - 统一架构语言</text>
  <text x="500" y="695" text-anchor="middle" font-family="Arial, sans-serif" font-size="12" font-style="italic" fill="#FEF3C7">统一标准层 - 贯穿所有组件</text>
  
  <!-- 第四层：开发者应用层 -->
  <rect x="60" y="140" width="880" height="100" rx="12" fill="url(#appGradient)" filter="url(#shadow)"/>
  <text x="500" y="175" text-anchor="middle" font-family="Arial, sans-serif" font-size="20" font-weight="bold" fill="white">开发者应用层</text>
  <text x="500" y="200" text-anchor="middle" font-family="Arial, sans-serif" font-size="14" fill="white">智能客服 | CRM系统 | ERP | MES | OA | 业务管理 | 数据分析</text>
  <text x="500" y="225" text-anchor="middle" font-family="Arial, sans-serif" font-size="12" font-style="italic" fill="#CBD5E1">开发者通过工具和框架创建的各类AI应用</text>
  
  <!-- 第三层：功能组件层 -->
  
  <!-- 开发工具 -->
  <rect x="60" y="300" width="250" height="240" rx="12" fill="url(#devToolGradient)" filter="url(#shadow)"/>
  <text x="185" y="330" text-anchor="middle" font-family="Arial, sans-serif" font-size="18" font-weight="bold" fill="white">开发工具</text>
  <text x="185" y="355" text-anchor="middle" font-family="Arial, sans-serif" font-size="12" fill="white">三模统一开发环境</text>
  
  <!-- 开发工具的三种模式 -->
  <rect x="75" y="375" width="65" height="24" rx="6" fill="rgba(255,255,255,0.2)"/>
  <text x="107" y="390" text-anchor="middle" font-family="Arial, sans-serif" font-size="10" fill="white">可视化</text>
  
  <rect x="152" y="375" width="65" height="24" rx="6" fill="rgba(255,255,255,0.2)"/>
  <text x="185" y="390" text-anchor="middle" font-family="Arial, sans-serif" font-size="10" fill="white">全代码</text>
  
  <rect x="230" y="375" width="65" height="24" rx="6" fill="rgba(255,255,255,0.2)"/>
  <text x="262" y="390" text-anchor="middle" font-family="Arial, sans-serif" font-size="10" fill="white">AI生成</text>
  
  <text x="185" y="425" text-anchor="middle" font-family="Arial, sans-serif" font-size="11" fill="white">编排式编程体验</text>
  <text x="185" y="445" text-anchor="middle" font-family="Arial, sans-serif" font-size="11" fill="white">符合JAAP规范</text>
  <text x="185" y="465" text-anchor="middle" font-family="Arial, sans-serif" font-size="11" fill="white">运行平台解释执行</text>
  <text x="185" y="485" text-anchor="middle" font-family="Arial, sans-serif" font-size="11" fill="white">基于框架和系统API</text>
  <text x="185" y="525" text-anchor="middle" font-family="Arial, sans-serif" font-size="10" font-style="italic" fill="#E0E7FF">开发层</text>
  
  <!-- 开发框架 -->
  <rect x="375" y="300" width="250" height="240" rx="12" fill="url(#frameworkGradient)" filter="url(#shadow)"/>
  <text x="500" y="330" text-anchor="middle" font-family="Arial, sans-serif" font-size="18" font-weight="bold" fill="white">开发框架</text>
  <text x="500" y="355" text-anchor="middle" font-family="Arial, sans-serif" font-size="12" fill="white">元素族类矩阵</text>
  <text x="500" y="380" text-anchor="middle" font-family="Arial, sans-serif" font-size="11" fill="white">Ai | Auth | I18N | Message</text>
  <text x="500" y="400" text-anchor="middle" font-family="Arial, sans-serif" font-size="11" fill="white">ORM | Pay | Service | Storage</text>
  <text x="500" y="420" text-anchor="middle" font-family="Arial, sans-serif" font-size="11" fill="white">Task | Web | Workflow</text>
  <text x="500" y="450" text-anchor="middle" font-family="Arial, sans-serif" font-size="11" fill="white">遵循JAAP规范</text>
  <text x="500" y="475" text-anchor="middle" font-family="Arial, sans-serif" font-size="11" fill="white">矩阵型元架构</text>
  <text x="500" y="500" text-anchor="middle" font-family="Arial, sans-serif" font-size="11" fill="white">可扩展 | 模块化定制</text>
  <text x="500" y="525" text-anchor="middle" font-family="Arial, sans-serif" font-size="10" font-style="italic" fill="#D1FAE5">框架层</text>
  
  <!-- 运维平台 -->
  <rect x="690" y="300" width="250" height="240" rx="12" fill="url(#opsGradient)" filter="url(#shadow)"/>
  <text x="815" y="330" text-anchor="middle" font-family="Arial, sans-serif" font-size="18" font-weight="bold" fill="white">运维平台</text>
  <text x="815" y="355" text-anchor="middle" font-family="Arial, sans-serif" font-size="12" fill="white">一站式自动化运维</text>
  <text x="815" y="385" text-anchor="middle" font-family="Arial, sans-serif" font-size="11" fill="white">应用创建 | 应用部署</text>
  <text x="815" y="410" text-anchor="middle" font-family="Arial, sans-serif" font-size="11" fill="white">环境管理 | 弹性伸缩</text>
  <text x="815" y="435" text-anchor="middle" font-family="Arial, sans-serif" font-size="11" fill="white">集群管理 | 版本管理</text>
  <text x="815" y="465" text-anchor="middle" font-family="Arial, sans-serif" font-size="11" fill="white">符合JAAP规范</text>
  <text x="815" y="490" text-anchor="middle" font-family="Arial, sans-serif" font-size="11" fill="white">基于框架和系统API</text>
  <text x="815" y="525" text-anchor="middle" font-family="Arial, sans-serif" font-size="10" font-style="italic" fill="#FEE2E2">管理层</text>
  
  <!-- 层间关系线条 -->
  
    <!-- 层级关系大箭头 -->
  
  <!-- 第零个大箭头：操作系统支持 → 应用运行平台 -->
  <polygon points="470,940 530,940 530,930 500,915 470,930" fill="url(#osToPlatformGradient)" filter="url(#shadow)"/>
  <text x="500" y="955" text-anchor="middle" font-family="Arial, sans-serif" font-size="13" font-weight="bold" fill="#0891B2">跨平台部署</text>
  
  <!-- 第一个大箭头：应用运行平台 → JAAP协议规范 -->
  <polygon points="470,750 530,750 530,740 500,725 470,740" fill="url(#platformToJaapGradient)" filter="url(#shadow)"/>
  <text x="500" y="765" text-anchor="middle" font-family="Arial, sans-serif" font-size="13" font-weight="bold" fill="#4C1D95">解释执行</text>
  
  <!-- 第二个大箭头：JAAP协议规范 → 功能组件层 -->
  <polygon points="470,590 530,590 530,580 500,565 470,580" fill="url(#jaapToComponentsGradient)" filter="url(#shadow)"/>
  <text x="500" y="605" text-anchor="middle" font-family="Arial, sans-serif" font-size="13" font-weight="bold" fill="#D97706">协议驱动</text>
  
  <!-- 第三个大箭头：功能组件层 → 开发者应用层 -->
  <polygon points="470,270 530,270 530,260 500,245 470,260" fill="url(#componentsToAppGradient)" filter="url(#shadow)"/>
  <text x="500" y="285" text-anchor="middle" font-family="Arial, sans-serif" font-size="13" font-weight="bold" fill="#0891B2">工具支撑</text>
  
  <!-- 功能组件间的协作关系 -->
  <line x1="310" y1="420" x2="375" y2="420" stroke="#374151" stroke-width="1.5" marker-end="url(#arrowheadGray)"/>
  <text x="342" y="410" text-anchor="middle" font-family="Arial, sans-serif" font-size="10" fill="#374151">使用</text>
  
  <line x1="690" y1="420" x2="625" y2="420" stroke="#374151" stroke-width="1.5" marker-end="url(#arrowheadGray)"/>
  <text x="657" y="410" text-anchor="middle" font-family="Arial, sans-serif" font-size="10" fill="#374151">使用</text>
  
  <!-- 框架对工具和运维的支撑（自举特性） -->
  <line x1="375" y1="440" x2="310" y2="440" stroke="#10B981" stroke-width="1.5" stroke-dasharray="4,2" marker-end="url(#arrowheadGreen)"/>
  <text x="342" y="455" text-anchor="middle" font-family="Arial, sans-serif" font-size="9" fill="#10B981">支撑</text>
  
  <line x1="625" y1="440" x2="690" y2="440" stroke="#10B981" stroke-width="1.5" stroke-dasharray="4,2" marker-end="url(#arrowheadGreen)"/>
  <text x="657" y="455" text-anchor="middle" font-family="Arial, sans-serif" font-size="9" fill="#10B981">支撑</text>
  

  
  <!-- 核心特性说明 -->
  <rect x="60" y="70" width="880" height="50" rx="8" fill="#F1F5F9" stroke="#CBD5E1" stroke-width="1"/>
  <text x="500" y="90" text-anchor="middle" font-family="Arial, sans-serif" font-size="14" font-weight="bold" fill="#1E293B">核心特性</text>
  <text x="250" y="105" font-family="Arial, sans-serif" font-size="11" fill="#475569">• 解释型系统</text>
  <text x="380" y="105" font-family="Arial, sans-serif" font-size="11" fill="#475569">• 矩阵型元架构</text>
  <text x="520" y="105" font-family="Arial, sans-serif" font-size="11" fill="#475569">• 图形化编排开发</text>
  <text x="680" y="105" font-family="Arial, sans-serif" font-size="11" fill="#475569">• 自动化运维</text>
  
</svg> 